<?xml version="1.0" encoding="UTF-8" standalone="no"?>
<svg width="52px" height="46px" viewBox="0 0 52 46" version="1.1" xmlns="http://www.w3.org/2000/svg" xmlns:xlink="http://www.w3.org/1999/xlink" xmlns:sketch="http://www.bohemiancoding.com/sketch/ns">
    <!-- Generator: Sketch Beta 3.4 (15575) - http://www.bohemiancoding.com/sketch -->
    <title>Slice 1</title>
    <desc>Created with Sketch Beta.</desc>
    <defs></defs>
    <g id="Page-1" stroke="none" stroke-width="1" fill="none" fill-rule="evenodd" sketch:type="MSPage">
        <g id="icon_button_download" sketch:type="MSLayerGroup">
            <g id="Page-1" sketch:type="MSShapeGroup">
                <rect id="Rectangle-104" fill="#EDBE26" x="0" y="0" width="52" height="46"></rect>
                <path d="M25.7969725,10 C18.7300971,10 13,15.8191252 13,23 C13,30.1795177 18.7300971,36 25.7969725,36 C32.863848,36 38.5939451,30.1795177 38.5939451,22.9997286 C38.5939451,15.8191252 32.863848,10 25.7969725,10 L25.7969725,10 L25.7969725,10 Z M25.7988725,30.8949995 C25.6626161,30.8971709 25.5016599,30.7978286 25.2611755,30.5622299 C24.0109823,29.3424366 20.5163587,24.0515085 20.5163587,23.1837561 L20.54703,23.0518426 C20.6102725,22.9267147 20.7804572,22.7958868 22.0618645,22.7036016 C22.558576,22.6666875 23.2979434,22.6403591 24.1358388,22.6267878 L24.1358388,16.7962627 C24.1358388,15.8622821 24.8990918,15.103372 25.8401294,15.103372 C26.7822528,15.103372 27.5452344,15.8622821 27.5452344,16.7962627 L27.5452344,22.6466019 C29.3426245,22.6957302 30.877816,22.8143439 31.0344295,23.031757 L31.077315,23.1802276 C31.0775864,23.9472805 26.6316108,30.8808853 25.7988725,30.8949995 L25.7988725,30.8949995 L25.7988725,30.8949995 Z" id="Shape" fill="#FFFFFF"></path>
            </g>
        </g>
    </g>
</svg>