<?xml version="1.0" encoding="UTF-8" standalone="no"?>
<svg width="60px" height="66px" viewBox="0 0 60 66" version="1.1" xmlns="http://www.w3.org/2000/svg" xmlns:xlink="http://www.w3.org/1999/xlink" xmlns:sketch="http://www.bohemiancoding.com/sketch/ns">
    <!-- Generator: Sketch Beta 3.4 (15575) - http://www.bohemiancoding.com/sketch -->
    <title>Shape</title>
    <desc>Created with Sketch Beta.</desc>
    <defs></defs>
    <g id="Page-1" stroke="none" stroke-width="1" fill="none" fill-rule="evenodd" sketch:type="MSPage">
        <path d="M28.9678886,0.0222196419 C28.667811,0.0485219917 28.3514687,0.107015194 28.0319678,0.18201099 C26.6337793,0.510210876 25.967766,2.53316999 25.8405436,4.42789537 C25.1801507,14.2631058 19.9096863,20.6640513 15.2714874,24.0365765 C12.1939834,26.2742682 8.5074316,26.4383116 5.31876914,26.5475833 C3.82152969,26.598943 2.20562974,26.656969 0.821784074,26.66172 C0.395021451,26.66172 0.00121981975,27.0404113 0,27.4606768 L0,58.4601982 C0,58.8342385 0.310176591,59.1725111 0.684820061,59.2363276 C3.6356677,59.7779344 6.83730412,60.0265676 9.58748086,60.9483778 C17.0534768,63.4510952 24.4675864,65.7731933 33.556183,65.7421182 C38.9371075,65.7225999 43.1443337,65.7370049 48.4852603,65.7421182 C51.467617,65.7446748 53.9159346,63.3143445 53.8953388,60.3320397 C53.8859668,58.9031625 53.6335002,57.7257285 51.8180513,55.994846 C54.8001377,55.994846 57.2053025,53.5893861 57.2053025,50.6075948 C57.2053025,48.8077599 56.3260804,47.208319 54.9682236,46.2247464 C57.5873904,45.849037 59.625,43.5813264 59.625,40.8603226 C59.3568807,37.8378271 57.3425689,36.5287499 53.8953388,36.5459562 C56.8774267,36.5498278 59.3054173,34.1100933 59.3054173,31.1358778 C59.3054173,28.1615337 56.8774267,25.7310645 53.8953388,25.7257993 C40.4094297,25.7017886 44.4400191,25.7257993 30.4516654,25.7257993 C32.6411414,23.5571893 36.2985846,18.5420317 35.9758806,9.97493787 C35.7714411,4.54755224 33.4690527,-0.372315605 28.9678886,0.0222196419 L28.9678886,0.0222196419 Z" id="Shape" fill="#000000" sketch:type="MSShapeGroup"></path>
    </g>
</svg>