<?xml version="1.0" encoding="UTF-8" standalone="no"?>
<svg width="72px" height="73px" viewBox="0 0 72 73" version="1.1" xmlns="http://www.w3.org/2000/svg" xmlns:xlink="http://www.w3.org/1999/xlink" xmlns:sketch="http://www.bohemiancoding.com/sketch/ns">
    <!-- Generator: Sketch Beta 3.4 (15575) - http://www.bohemiancoding.com/sketch -->
    <title>Clipped</title>
    <desc>Created with Sketch Beta.</desc>
    <defs>
        <rect id="path-1" x="0" y="0" width="72.8345202" height="72.8345202"></rect>
    </defs>
    <g id="Page-1" stroke="none" stroke-width="1" fill="none" fill-rule="evenodd" sketch:type="MSPage">
        <g id="Clipped" sketch:type="MSLayerGroup" transform="translate(35.187791, 36.187791) rotate(-10.000000) translate(-35.187791, -36.187791) translate(-1.229469, -0.229469)">
            <mask id="mask-2" sketch:name="b" fill="white">
                <use xlink:href="#path-1"></use>
            </mask>
            <g id="b"></g>
            <path d="M31.7234799,11.4107415 C31.7234799,8.82106967 33.8275883,6.79788855 36.4172601,6.79788855 C39.0069319,6.79788855 41.1110403,8.90199692 41.1110403,11.4107415 C41.1110403,14.0004133 39.0069319,16.0235944 36.4172601,16.0235944 C33.8275883,16.0235944 31.7234799,13.9194861 31.7234799,11.4107415 L31.7234799,11.4107415 Z M54.7877447,54.6258902 L60.0480156,54.6258902 C55.1923809,60.7763608 47.9898561,64.9845775 39.7352771,65.8747772 L39.8971316,65.7938499 L39.8971316,34.07037 L54.8686719,34.07037 L54.8686719,27.3534087 L39.8162044,27.3534087 L39.8162044,22.2549923 C44.5099846,20.7983019 47.9089289,16.5091579 47.9089289,11.4107415 C47.9089289,5.09841642 42.7295852,0 36.4172601,0 C30.104935,0 24.9255914,5.09841642 24.9255914,11.4107415 C24.9255914,16.5091579 28.3245356,20.8792291 33.0183158,22.2549923 L33.0183158,27.3534087 L18.0467756,27.3534087 L18.0467756,34.07037 L33.0183158,34.07037 L33.0183158,65.7938499 L33.1801703,65.8747772 C24.9255914,64.9845775 17.7230666,60.7763608 12.8674319,54.6258902 L18.0467756,54.6258902 L0,40.9491858 C2.26596285,58.9150341 17.7230666,72.8345202 36.4172601,72.8345202 C55.1114536,72.8345202 70.5685574,58.9150341 72.8345202,40.9491858 L54.7877447,54.6258902 L54.7877447,54.6258902 Z" id="Shape" fill="#000000" sketch:type="MSShapeGroup" mask="url(#mask-2)"></path>
        </g>
    </g>
</svg>