<?xml version="1.0" encoding="UTF-8" standalone="no"?>
<svg width="75px" height="75px" viewBox="0 0 75 75" version="1.1" xmlns="http://www.w3.org/2000/svg" xmlns:xlink="http://www.w3.org/1999/xlink" xmlns:sketch="http://www.bohemiancoding.com/sketch/ns">
    <!-- Generator: Sketch Beta 3.4 (15575) - http://www.bohemiancoding.com/sketch -->
    <title>noun_17270</title>
    <desc>Created with Sketch Beta.</desc>
    <defs></defs>
    <g id="Page-1" stroke="none" stroke-width="1" fill="none" fill-rule="evenodd" sketch:type="MSPage">
        <g id="noun_17270" sketch:type="MSLayerGroup" fill="#000000">
            <path id="Shape" sketch:type="MSShapeGroup" d="M32.231,43.714 C32.246,43.716 32.26,43.719 32.275,43.721"></path>
            <path d="M32.231,43.714 C28.77,44.738 23.942,48.153 20.835,45.236 C20.403,43.747 21.902,42.909 22.506,41.777 C22.564,38.839 18.9,38.071 16.812,38.236 C12.626,38.564 13.431,41.633 15.83,44.575 C12.629,47.895 7.676,43.758 4.066,42.862 C2.47,46.169 0.378,50.844 2.097,54.432 C2.392,54.546 2.813,54.614 2.969,54.628 C6.17,52.019 8.326,52.993 8.719,55.78 C9.255,59.572 7.14,61.949 2.599,59.648 C0.538,62.567 2.912,67.474 5.525,69.621 C8.658,68.48 12.024,65.726 15.524,66.915 C16.912,69.884 12.337,70.766 15.29,73.103 C17.122,74.554 21.383,74.9 22.782,71.998 C22.576,70.334 20.663,69.428 20.615,67.774 C24.184,65.231 28.644,69.179 32.346,69.915 C33.198,66.497 35.889,61.324 32.646,58.635 C31.204,58.726 30.125,59.938 28.72,60.105 C24.664,57.696 28.903,48.35 32.991,53.644 C36.69,52.48 33.113,46.353 32.275,43.72 L32.231,43.714 L32.231,43.714 Z" id="Shape" sketch:type="MSShapeGroup"></path>
            <path d="M57.443,37.764 C60.202,36.867 65.985,33.645 63.375,30.387 C56.8,30.407 60.635,22.911 64.923,22.642 C67.101,22.906 66.587,25.452 67.613,26.789 C72.078,28.005 73.027,20.979 74.204,17.768 C69.682,17.063 59.494,11.918 68.308,8.739 C69.566,4.851 64.393,1.594 61.685,2.853 C59.782,3.739 60.714,5.7 59.408,7.614 C55.448,7.809 53.852,3.021 52.384,0.095 C49.148,1.299 44.045,3.33 43.929,7.258 C45.497,9.062 48.683,7.355 49.595,9.414 C50.616,11.723 44.83,16.887 43.195,14.568 C42.183,13.287 42.882,10.838 40.817,10.448 C37.552,11.773 35.784,15.513 35.058,18.763 C38.285,20.242 43.026,20.235 45.064,23.789 C45.182,24.532 44.53,25.163 43.966,25.557 C42.551,25.953 40.803,26.003 39.868,27.306 C39.722,30.589 43.463,33.127 45.434,32.814 C48.28,32.361 46.636,26.692 50.158,27.812 C52.409,28.528 55.904,35.7 57.443,37.764 L57.443,37.764 Z" id="Shape" sketch:type="MSShapeGroup"></path>
            <path d="M4.066,41.14 C7.906,41.972 9.876,45.22 13.719,43.474 C11.321,40.533 12.626,36.843 16.812,36.514 C18.9,36.349 24,37.605 23.942,40.543 C23.843,41.676 22.907,42.193 22.564,43.799 C24.016,46.947 28.77,43.015 32.231,41.991 C30.919,38.844 28.44,35.761 28.832,32.189 C30.386,29.995 32.38,33.095 34.271,32.755 C36.936,30.96 36.329,24.544 32.744,24.317 C31.261,24.724 29.944,26.465 28.268,25.598 C25.831,22.025 27.955,17.258 28.932,13.496 C25.864,10.728 15.474,9.313 21.043,15.528 C21.043,15.642 20.974,15.92 20.868,16.222 C18.554,18.551 10.879,17.4 14.79,13.177 C14.835,12.554 15.032,11.728 14.398,11.326 C11.231,10.827 7.375,11.45 4.91,13.381 C6.232,16.598 8.387,20.898 6.495,24.103 C6.139,24.166 5.868,24.242 5.697,24.291 C2.825,21.841 1.492,21.823 0.358,24.49 C-0.686,26.947 0.401,35.445 5.65,29.959 C9.719,31.129 4.593,38.181 4.066,41.14 L4.066,41.14 Z" id="Shape" sketch:type="MSShapeGroup"></path>
            <path d="M44.493,72.949 C45.193,71.491 43.523,70.411 43.206,69.106 C43.358,65.685 47.961,65.835 49.512,66.898 C53.001,69.296 48.275,71.177 49.505,74.251 C52.879,75.974 56.786,74.339 60.107,73.188 C60.187,73.094 60.283,73.002 60.347,72.866 C58.744,69.21 56.481,65.242 57.346,61.065 C59.109,58.92 60.945,62.014 62.731,62.483 C68.585,61.6 64.631,49.94 59.816,55.285 C55.25,52.327 59.341,45.548 61.425,41.928 C61.323,41.76 61.189,41.555 60.992,41.461 C57.324,38.865 45.847,37.858 49.895,45.079 C49.118,48.167 44.631,49.842 42.66,48.198 C40.331,46.259 43.401,44.829 44.159,42.48 C41.774,38.986 37.004,42.719 33.998,43.72 C34.834,46.353 38.057,53.375 33.08,54.583 C28.769,50.937 26.848,56.205 29.52,58.8 C30.888,59.067 31.085,57.365 33.451,57.489 C37.195,60.125 34.92,66.497 34.069,69.915 C37.124,71.543 40.964,74.859 44.493,72.949 L44.493,72.949 Z" id="Shape" sketch:type="MSShapeGroup"></path>
        </g>
    </g>
</svg>