<?xml version="1.0" encoding="UTF-8" standalone="no"?>
<svg width="89px" height="97px" viewBox="0 0 89 97" version="1.1" xmlns="http://www.w3.org/2000/svg" xmlns:xlink="http://www.w3.org/1999/xlink" xmlns:sketch="http://www.bohemiancoding.com/sketch/ns">
    <!-- Generator: Sketch Beta 3.4 (15569) - http://www.bohemiancoding.com/sketch -->
    <title>Slice 1</title>
    <desc>Created with Sketch Beta.</desc>
    <defs></defs>
    <g id="Page-1" stroke="none" stroke-width="1" fill="none" fill-rule="evenodd" sketch:type="MSPage">
        <g id="Group" sketch:type="MSLayerGroup" fill="#848484">
            <path d="M69.5892099,12.1002472 L44.9658765,36.776427 C51.1596173,49.5406517 48.9763704,65.3593933 38.3974568,75.9599101 C28.0141235,86.3666292 12.6105309,88.6701798 0,82.8804719 C19.402,101.764742 50.4003704,101.602876 69.5881111,82.3728539 C88.9538519,62.9677528 88.9538519,31.5053483 69.5892099,12.1002472 L69.5892099,12.1002472 Z" id="Shape" sketch:type="MSShapeGroup"></path>
            <path d="M53.4659259,45.1306517 C39.3412963,49.2796854 24.5760864,41.7755281 19.3976049,28.2405169 C11.0513827,35.1897079 7.14746914,46.6854382 10.394321,57.784764 C14.7520247,72.6840674 30.3380123,81.2210787 45.2054074,76.8529213 C60.0717037,72.484764 68.5915309,56.8675281 64.2327284,41.9671236 C64.0162716,41.222764 63.7624568,40.4993258 63.4910617,39.788 C60.6320741,42.1675281 57.2566667,44.0163146 53.4659259,45.1306517 L53.4659259,45.1306517 Z" id="Shape" sketch:type="MSShapeGroup"></path>
            <ellipse id="Oval" sketch:type="MSShapeGroup" cx="54.5767778" cy="27.8088764" rx="21.6929259" ry="21.7394831"></ellipse>
            <path d="M58.8773457,11.180809 L83.463321,-1.77635684e-15 L66.3148889,21.1184494" id="Shape" sketch:type="MSShapeGroup"></path>
            <path d="M63.7327901,16.0466742 L88.3176667,4.86586517 L71.1703333,25.9854157" id="Shape" sketch:type="MSShapeGroup"></path>
        </g>
    </g>
</svg>