<?xml version="1.0" encoding="UTF-8" standalone="no"?>
<svg width="101px" height="99px" viewBox="0 0 101 99" version="1.1" xmlns="http://www.w3.org/2000/svg" xmlns:xlink="http://www.w3.org/1999/xlink" xmlns:sketch="http://www.bohemiancoding.com/sketch/ns">
    <!-- Generator: Sketch Beta 3.4 (15569) - http://www.bohemiancoding.com/sketch -->
    <title>Slice 1</title>
    <desc>Created with Sketch Beta.</desc>
    <defs></defs>
    <g id="Page-1" stroke="none" stroke-width="1" fill="none" fill-rule="evenodd" sketch:type="MSPage">
        <g id="noun_112" sketch:type="MSLayerGroup" fill="#848484">
            <path d="M41.883,0 L22.858,0 L22.858,13.612 L41.882,13.612 L41.882,0 L41.883,0 Z" id="Shape" sketch:type="MSShapeGroup"></path>
            <path d="M63.348,58.74 C61.545,58.74 60.089,57.284 60.089,55.48 L60.089,17.873 L88.828,17.873 L100.94,69.184 L100.878,72.502 L100.878,95.18 C100.878,96.922 99.469,98.349 97.709,98.349 L69.774,98.349 C68.016,98.349 66.605,96.922 66.605,95.18 L66.605,58.74 L63.572,58.74" id="Shape" sketch:type="MSShapeGroup"></path>
            <path d="M38.533,58.816 C40.337,58.816 41.792,57.375 41.792,55.571 L41.792,17.932 L13.082,17.932 L0.94,69.247 L1,72.592 L1,95.271 C1,97.013 2.425,98.44 4.169,98.44 L32.105,98.44 C33.879,98.44 35.305,97.013 35.305,95.271 L35.305,58.816 L38.291,58.816" id="Shape" sketch:type="MSShapeGroup"></path>
            <path d="M55.858,17.932 L46.005,17.932 L46.005,52.872 L55.858,52.872 L55.858,17.932 L55.858,17.932 Z" id="Shape" sketch:type="MSShapeGroup"></path>
            <path d="M79.127,0 L60.089,0 L60.089,13.612 L79.127,13.612 L79.127,0 L79.127,0 Z" id="Shape" sketch:type="MSShapeGroup"></path>
        </g>
    </g>
</svg>