<?xml version="1.0" encoding="UTF-8" standalone="no"?>
<svg width="289px" height="70px" viewBox="0 0 289 70" version="1.1" xmlns="http://www.w3.org/2000/svg" xmlns:xlink="http://www.w3.org/1999/xlink" xmlns:sketch="http://www.bohemiancoding.com/sketch/ns">
    <!-- Generator: Sketch Beta 3.4 (15138) - http://www.bohemiancoding.com/sketch -->
    <title>Slice 1</title>
    <desc>Created with Sketch Beta.</desc>
    <defs></defs>
    <g id="Page-1" stroke="none" stroke-width="1" fill="none" fill-rule="evenodd" sketch:type="MSPage">
        <g id="Group" sketch:type="MSLayerGroup" fill="#FFFFFF">
            <path d="M56.8006519,63.0661441 L6.99739259,63.0661441 C3.61961481,63.0661441 0.881244444,60.3248729 0.881244444,56.9429237 L0.881244444,33.8019915 C0.881244444,30.4200424 3.61961481,27.6787712 6.99739259,27.6787712 C10.375763,27.6787712 13.1141333,30.4200424 13.1141333,33.8019915 L13.1141333,50.8202966 L42.0344296,50.8202966 L2.0610963,10.8046186 C-0.327644444,8.41394068 -0.327644444,4.53665254 2.0610963,2.14597458 C4.44983704,-0.24529661 8.32242963,-0.24529661 10.7111704,2.14597458 L61.1253926,52.6136017 C62.8747259,54.3647881 63.3985778,56.9980932 62.4516148,59.2861441 C61.5046519,61.5741949 59.2747259,63.0661441 56.8006519,63.0661441" id="Fill-1" sketch:type="MSShapeGroup"></path>
            <path d="M57.1088,31.6428475 C55.5449481,31.6428475 53.9810963,31.0460678 52.7870222,29.8525085 L33.6984296,10.7686102 C31.3085037,8.37911864 31.3061333,4.50242373 33.6930963,2.10937288 C36.0800593,-0.283084746 39.9526519,-0.286050847 42.3431704,2.1040339 L61.4305778,21.187339 C63.8210963,23.5774237 63.8240593,27.4541186 61.4365037,29.8465763 C60.2424296,31.0436949 58.6750222,31.6428475 57.1088,31.6428475" id="Fill-3" sketch:type="MSShapeGroup"></path>
            <path d="M112.768533,26.9613898 C111.987496,24.9213051 110.9072,23.1653729 109.53357,21.6935932 C108.158163,20.223 106.522015,19.0721525 104.627496,18.2410508 C102.730607,17.4111356 100.644681,16.9952881 98.3691259,16.9952881 C96.1883852,16.9952881 94.1492741,17.4342712 92.254163,18.3122373 C90.3572741,19.1907966 88.6986074,20.3766441 87.2752,21.8715593 C85.8529778,23.3664746 84.7394963,25.1348644 83.934163,27.1749492 C83.1264593,29.2162203 82.7252741,31.3749492 82.7252741,33.6529153 C82.7252741,35.9308814 83.1264593,38.0664746 83.934163,40.0596949 C84.7394963,42.052322 85.8529778,43.7969831 87.2752,45.2913051 C88.6986074,46.7868136 90.3572741,47.9607966 92.254163,48.8156271 C94.1492741,49.6692712 96.1883852,50.0969831 98.3691259,50.0969831 C100.644681,50.0969831 102.730607,49.6935932 104.627496,48.8868136 C106.522015,48.0806271 108.158163,46.9416441 109.53357,45.4698644 C110.9072,43.9992712 111.987496,42.2552034 112.768533,40.237661 C113.550756,38.2201186 113.941867,36.0263898 113.941867,33.6529153 C113.941867,31.2325763 113.550756,29.0020678 112.768533,26.9613898 L112.768533,26.9613898 Z M116.572978,50.8794407 C116.572978,53.7274915 116.135052,56.313339 115.258015,58.6387627 C114.380385,60.9635932 113.159644,62.9574068 111.595793,64.6184237 C110.031941,66.2788475 108.135052,67.5602034 105.906311,68.4630847 C103.678163,69.3641864 101.212978,69.8156271 98.5107556,69.8156271 C94.1966815,69.8156271 90.5463111,68.7591017 87.560237,66.6472373 C84.5729778,64.5353729 82.5338667,61.5805424 81.4452741,57.7851186 L84.2180148,57.7851186 C85.2603852,60.7749492 87.0150519,63.0879153 89.480237,64.7257966 C91.944237,66.3630847 94.9552,67.1817288 98.5107556,67.1817288 C100.833126,67.1817288 102.9552,66.8014746 104.876385,66.0427458 C106.7952,65.2834237 108.418904,64.1918983 109.746311,62.7675763 C111.073719,61.3444407 112.104237,59.6241017 112.840237,57.6071525 C113.573867,55.5896102 113.941867,53.3472373 113.941867,50.8794407 L113.941867,43.3342712 C112.472237,46.1811356 110.386311,48.4721525 107.684089,50.2037627 C104.981867,51.9359661 101.877274,52.8020678 98.3691259,52.8020678 C95.8553481,52.8020678 93.486163,52.3037627 91.2580148,51.3071525 C89.0286815,50.3099492 87.0855704,48.9348644 85.4269037,47.178339 C83.7676444,45.423 82.4627556,43.3941864 81.5163852,41.0913051 C80.5670519,38.7896102 80.0935704,36.3111356 80.0935704,33.6529153 C80.0935704,30.9958814 80.5670519,28.4918983 81.5163852,26.1427458 C82.4627556,23.7935932 83.7676444,21.7416441 85.4269037,19.9851186 C87.0855704,18.2297797 89.0286815,16.8416441 91.2580148,15.8207119 C93.486163,14.8003729 95.8553481,14.2902034 98.3691259,14.2902034 C101.877274,14.2902034 104.981867,15.1568983 107.684089,16.8885085 C110.386311,18.6213051 112.472237,20.9348644 113.941867,23.8291864 L113.941867,15.2156271 L116.572978,15.2156271 L116.572978,50.8794407 Z" id="Fill-5" sketch:type="MSShapeGroup"></path>
            <path d="M153.017956,27.1745932 C152.188326,25.1351017 151.061807,23.3661186 149.640178,21.8712034 C148.217363,20.3762881 146.558104,19.1910339 144.661807,18.3118814 C142.764919,17.4345085 140.751289,16.9949322 138.617363,16.9949322 C136.485215,16.9949322 134.468622,17.4345085 132.572919,18.3118814 C130.677215,19.1910339 129.017363,20.3762881 127.596326,21.8712034 C126.173511,23.3661186 125.046993,25.1351017 124.217363,27.1745932 C123.387733,29.2158644 122.973511,31.3745932 122.973511,33.6525593 C122.973511,35.9305254 123.387733,38.0661186 124.217363,40.0599322 C125.046993,42.0525593 126.173511,43.7972203 127.596326,45.2915424 C129.017363,46.7870508 130.677215,47.9610339 132.572919,48.8152712 C134.468622,49.6695085 136.485215,50.0972203 138.617363,50.0972203 C140.751289,50.0972203 142.764919,49.6695085 144.661807,48.8152712 C146.558104,47.9610339 148.217363,46.7870508 149.640178,45.2915424 C151.061807,43.7972203 152.188326,42.0525593 153.017956,40.0599322 C153.845807,38.0661186 154.262993,35.9305254 154.262993,33.6525593 C154.262993,31.3745932 153.845807,29.2158644 153.017956,27.1745932 L153.017956,27.1745932 Z M156.893511,51.8768814 L154.262993,51.8768814 L154.262993,43.0491695 C152.74477,45.9452712 150.610844,48.2813729 147.8624,50.0610339 C145.111585,51.8406949 142.031289,52.7305254 138.617363,52.7305254 C136.104178,52.7305254 133.734993,52.2322203 131.506844,51.2362034 C129.276919,50.239 127.3344,48.8757797 125.675141,47.1423898 C124.015881,45.4107797 122.711585,43.3938305 121.764622,41.0915424 C120.815881,38.7904407 120.341807,36.3107797 120.341807,33.6525593 C120.341807,30.9955254 120.815881,28.4915424 121.764622,26.1423898 C122.711585,23.7932373 124.015881,21.7412881 125.675141,19.9847627 C127.3344,18.2294237 129.276919,16.8418814 131.506844,15.8203559 C133.734993,14.8006102 136.104178,14.2898475 138.617363,14.2898475 C142.031289,14.2898475 145.111585,15.204 147.8624,17.0305254 C150.610844,18.8582373 152.74477,21.2192542 154.262993,24.1135763 L154.262993,15.2152712 L156.893511,15.2152712 L156.893511,51.8768814 Z" id="Fill-7" sketch:type="MSShapeGroup"></path>
            <path d="M194.795733,51.8766441 L192.164622,51.8766441 L192.164622,45.8257966 C190.931437,47.9607966 189.213511,49.6467288 187.007881,50.8794407 C184.804622,52.1127458 182.255881,52.7302881 179.364622,52.7302881 C177.134696,52.7302881 175.084919,52.3506271 173.213511,51.5918983 C171.340326,50.8331695 169.716622,49.7647797 168.341215,48.3885085 C166.9664,47.0128305 165.899141,45.3874068 165.1424,43.5116441 C164.383289,41.6382542 164.004622,39.5857119 164.004622,37.3546102 L164.004622,15.2156271 L166.635141,15.2156271 L166.635141,37.3546102 C166.635141,39.2054576 166.955733,40.9139322 167.595733,42.4800339 C168.235733,44.0461356 169.124622,45.3874068 170.2624,46.5014746 C171.400178,47.617322 172.738252,48.4952881 174.280178,49.1359661 C175.820326,49.7766441 177.515733,50.0969831 179.364622,50.0969831 C181.213511,50.0969831 182.920178,49.7766441 184.484622,49.1359661 C186.048474,48.4952881 187.400178,47.617322 188.53677,46.5014746 C189.674548,45.3874068 190.563437,44.0461356 191.203437,42.4800339 C191.844622,40.9139322 192.164622,39.2054576 192.164622,37.3546102 L192.164622,15.2156271 L194.795733,15.2156271 L194.795733,51.8766441 Z" id="Fill-9" sketch:type="MSShapeGroup"></path>
            <path d="M232.021393,26.9613898 C231.239763,24.9213051 230.159467,23.1653729 228.785837,21.6935932 C227.41043,20.223 225.774874,19.0721525 223.879763,18.2410508 C221.982874,17.4111356 219.896948,16.9952881 217.6208,16.9952881 C215.440652,16.9952881 213.401541,17.4342712 211.50643,18.3122373 C209.609541,19.1907966 207.950874,20.3766441 206.527467,21.8715593 C205.105837,23.3664746 203.99117,25.1348644 203.18643,27.1749492 C202.379319,29.2162203 201.977541,31.3749492 201.977541,33.6529153 C201.977541,35.9308814 202.379319,38.0664746 203.18643,40.0596949 C203.99117,42.052322 205.105837,43.7969831 206.527467,45.2913051 C207.950874,46.7868136 209.609541,47.9607966 211.50643,48.8156271 C213.401541,49.6692712 215.440652,50.0969831 217.6208,50.0969831 C219.896948,50.0969831 221.982874,49.6935932 223.879763,48.8868136 C225.774874,48.0806271 227.41043,46.9416441 228.785837,45.4698644 C230.159467,43.9992712 231.239763,42.2552034 232.021393,40.237661 C232.803022,38.2201186 233.194133,36.0263898 233.194133,33.6529153 C233.194133,31.2325763 232.803022,29.0020678 232.021393,26.9613898 L232.021393,26.9613898 Z M235.825837,50.8794407 C235.825837,53.7274915 235.387319,56.313339 234.509689,58.6387627 C233.632652,60.9635932 232.411911,62.9574068 230.848652,64.6184237 C229.284207,66.2788475 227.387319,67.5602034 225.15917,68.4630847 C222.929837,69.3641864 220.465837,69.8156271 217.763022,69.8156271 C213.448948,69.8156271 209.79917,68.7591017 206.812504,66.6472373 C203.825837,64.5353729 201.786726,61.5805424 200.697541,57.7851186 L203.469689,57.7851186 C204.512652,60.7749492 206.267319,63.0879153 208.731911,64.7257966 C211.196504,66.3630847 214.207467,67.1817288 217.763022,67.1817288 C220.085393,67.1817288 222.207467,66.8014746 224.128652,66.0427458 C226.048059,65.2834237 227.67117,64.1918983 228.998578,62.7675763 C230.325985,61.3444407 231.357096,59.6241017 232.092504,57.6071525 C232.826133,55.5896102 233.194133,53.3472373 233.194133,50.8794407 L233.194133,43.3342712 C231.725096,46.1811356 229.638578,48.4721525 226.936948,50.2037627 C224.234133,51.9359661 221.129541,52.8020678 217.6208,52.8020678 C215.108207,52.8020678 212.73843,52.3037627 210.509689,51.3071525 C208.280948,50.3099492 206.337837,48.9348644 204.678578,47.178339 C203.019911,45.423 201.715022,43.3941864 200.768652,41.0913051 C199.818726,38.7896102 199.345244,36.3111356 199.345244,33.6529153 C199.345244,30.9958814 199.818726,28.4918983 200.768652,26.1427458 C201.715022,23.7935932 203.019911,21.7416441 204.678578,19.9851186 C206.337837,18.2297797 208.280948,16.8416441 210.509689,15.8207119 C212.73843,14.8003729 215.108207,14.2902034 217.6208,14.2902034 C221.129541,14.2902034 224.234133,15.1568983 226.936948,16.8885085 C229.638578,18.6213051 231.725096,20.9348644 233.194133,23.8291864 L233.194133,15.2156271 L235.825837,15.2156271 L235.825837,50.8794407 Z" id="Fill-11" sketch:type="MSShapeGroup"></path>
            <path d="M273.372681,30.8767034 C273.039644,28.8834831 272.412681,27.0450932 271.487052,25.3597542 C270.563793,23.6756017 269.412978,22.2162797 268.039348,20.9817881 C266.663941,19.7484831 265.111941,18.7750085 263.38157,18.0631441 C261.650607,17.3512797 259.836089,16.9953475 257.94157,16.9953475 C255.997274,16.9953475 254.160237,17.3512797 252.430459,18.0631441 C250.698311,18.7750085 249.159348,19.7484831 247.807052,20.9817881 C246.457126,22.2162797 245.319348,23.6756017 244.394904,25.3597542 C243.470459,27.0450932 242.866015,28.8834831 242.58157,30.8767034 L273.372681,30.8767034 Z M242.297126,33.5106017 C242.297126,35.8840763 242.722607,38.0908559 243.577126,40.1309407 C244.430459,42.1722119 245.579496,43.9275508 247.026015,45.3987373 C248.471348,46.8693305 250.166163,48.0213644 252.110459,48.8506864 C254.052978,49.6823814 256.139496,50.0970424 258.368237,50.0970424 C260.500385,50.0970424 262.361719,49.824161 263.950459,49.2783983 C265.537422,48.7332288 266.90157,48.0083136 268.039348,47.1072119 C269.177126,46.2055169 270.125274,45.185178 270.883793,44.0461949 C271.641126,42.9072119 272.234904,41.7213644 272.66157,40.4868729 L275.434311,40.4868729 C274.153719,44.4727203 272.068385,47.5111949 269.177126,49.5987373 C266.284681,51.6874661 262.681719,52.7303475 258.368237,52.7303475 C255.759644,52.7303475 253.319348,52.2326356 251.042607,51.2360254 C248.767644,50.2394153 246.788385,48.8868729 245.106015,47.1783983 C243.422459,45.4699237 242.095052,43.4535678 241.123793,41.1275508 C240.150756,38.8027203 239.666015,36.3111949 239.666015,33.6529746 C239.666015,30.9959407 240.139496,28.4919576 241.088237,26.1428051 C242.035793,23.7936525 243.338311,21.7417034 244.999348,19.985178 C246.658015,18.229839 248.600533,16.8417034 250.830459,15.8207712 C253.058015,14.8004322 255.428385,14.2902627 257.94157,14.2902627 C260.690607,14.2902627 263.190756,14.8597542 265.443793,15.9987373 C267.695052,17.1377203 269.626904,18.6213644 271.238163,20.4478898 C272.849422,22.2750085 274.095052,24.3275508 274.972089,26.6055169 C275.849126,28.8834831 276.263941,31.1857712 276.217126,33.5106017 L242.297126,33.5106017 Z" id="Fill-13" sketch:type="MSShapeGroup"></path>
            <path d="M279.703704,7.82018644 L279.703704,13.1591695 L279.111111,13.1591695 L279.111111,7.82018644 L276.740741,7.82018644 L276.740741,7.2269661 L281.481481,7.2269661 L281.481481,7.82018644 L279.703704,7.82018644 Z" id="Fill-15" sketch:type="MSShapeGroup"></path>
            <path d="M288,13.1591695 L287.407407,13.1591695 L287.407407,8.22713559 L285.723852,13.1591695 L284.926222,13.1591695 L283.259259,8.22713559 L283.259259,13.1591695 L282.666667,13.1591695 L282.666667,7.2269661 L283.53837,7.2269661 L285.328593,12.3695932 L287.12237,7.2269661 L288,7.2269661 L288,13.1591695 Z" id="Fill-17" sketch:type="MSShapeGroup"></path>
        </g>
    </g>
</svg>