<?xml version="1.0" encoding="UTF-8" standalone="no"?>
<svg width="123px" height="105px" viewBox="0 0 123 105" version="1.1" xmlns="http://www.w3.org/2000/svg" xmlns:xlink="http://www.w3.org/1999/xlink" xmlns:sketch="http://www.bohemiancoding.com/sketch/ns">
    <!-- Generator: Sketch Beta 3.4 (15138) - http://www.bohemiancoding.com/sketch -->
    <title>Slice 1</title>
    <desc>Created with Sketch Beta.</desc>
    <defs></defs>
    <g id="Page-1" stroke="none" stroke-width="1" fill="none" fill-rule="evenodd" sketch:type="MSPage">
        <path d="M122.032089,9.81059799 L122.032089,80.4238851 C122.032089,83.6463169 120.490926,86.4484314 118.109129,88.2698059 C116.42786,89.5307575 114.326274,90.3713918 112.224688,90.3713918 L112.224688,90.3713918 L93.4505208,90.3713918 L87.1457631,90.3713918 L73.5555074,90.3713918 L73.5555074,100.178793 L88.6869261,100.178793 C89.3874547,100.178793 89.9478776,100.739216 89.9478776,101.439744 L89.9478776,103.54133 C89.9478776,104.241859 89.3874547,104.802282 88.6869261,104.802282 L32.6446347,104.802282 C31.9441061,104.802282 31.3836832,104.241859 31.3836832,103.54133 L31.3836832,101.439744 C31.3836832,100.739216 31.9441061,100.178793 32.6446347,100.178793 L47.9161591,100.178793 L47.9161591,90.3713918 L34.1857977,90.3713918 L27.1805113,90.3713918 L9.80740099,90.3713918 L9.80740099,90.3713918 C7.56570933,90.3713918 5.46412341,89.6708632 3.9229604,88.2698059 C1.54116301,86.4484314 7.10542736e-15,83.6463169 7.10542736e-15,80.4238851 L7.10542736e-15,9.81059799 C7.10542736e-15,4.34647459 4.48338331,0.00319700652 9.80740099,0.00319700652 L112.084583,0.00319700652 C117.548706,-0.136908722 122.032089,4.34647459 122.032089,9.81059799 L122.032089,9.81059799 Z M91.9093578,83.6463169 L111.664266,83.6463169 C108.862151,66.553418 96.5328469,56.3256998 87.5660803,56.3256998 C84.3436485,56.3256998 80.7008996,57.7267571 77.1982564,59.9684488 C80.2805824,62.3502461 82.9425912,65.5726779 85.4644943,69.2154268 C88.1265032,73.5587044 90.3681948,78.6025106 91.9093578,83.6463169 L91.9093578,83.6463169 Z M98.0740099,44.8370301 C99.6151729,42.5953384 100.595913,40.0734353 100.595913,37.2713208 C100.595913,29.9858229 94.7114724,24.241488 87.5660803,24.241488 C83.9233313,24.241488 80.7008996,25.782651 78.3191022,28.1644484 C80.2805824,31.5269859 81.5415339,35.4499463 81.5415339,39.3729067 C81.5415339,42.4552327 80.8410053,45.1172416 79.8602652,47.7792504 C82.1019568,49.4605191 84.7639657,50.3011535 87.5660803,50.3011535 C91.2088292,50.3011535 94.5713667,48.7599905 96.9531641,46.2380874 C97.2333755,45.8177702 97.513587,45.2573473 98.0740099,44.8370301 L98.0740099,44.8370301 Z M35.7269607,83.6463169 L85.3243886,83.6463169 C82.522274,75.2399732 77.4784678,68.7951097 72.0143444,64.8721493 C70.3330757,63.471092 68.5117012,62.4903519 66.6903267,61.7898232 C64.4486351,60.9491889 62.4871549,60.3887659 60.5256747,60.3887659 C58.8444059,60.3887659 57.0230315,60.6689774 55.3417627,61.369506 C53.5203883,62.0700347 51.6990138,62.9106691 49.7375336,64.1716206 C44.1333044,68.2346867 38.8092868,74.819656 35.7269607,83.6463169 L35.7269607,83.6463169 Z M74.5362475,38.9525895 C74.5362475,31.1066687 68.091384,24.6618052 60.2454632,24.6618052 C52.3995424,24.8019109 45.9546789,31.2467744 45.9546789,38.9525895 C45.9546789,46.7985103 52.2594367,53.2433738 60.2454632,53.2433738 C68.2314897,53.2433738 74.5362475,46.7985103 74.5362475,38.9525895 L74.5362475,38.9525895 Z M39.229604,39.3729067 C39.229604,34.8895234 40.6306612,30.8264573 42.8723529,27.4639198 C40.4905555,25.5024396 37.6884409,24.241488 34.3259035,24.241488 C27.1805113,24.241488 21.2960707,30.1259286 21.2960707,37.4114265 C21.2960707,40.2135411 22.1367051,42.7354442 23.8179738,44.9771358 C24.3783967,45.5375587 24.6586082,45.9578759 24.9388197,46.5182988 C27.320617,49.0402019 30.6831545,50.581365 34.3259035,50.581365 C36.8478066,50.581365 39.229604,49.8808363 41.0509784,48.6198848 C39.7900269,45.6776645 39.229604,42.5953384 39.229604,39.3729067 L39.229604,39.3729067 Z M35.1665378,69.3555326 C37.8285467,65.2924664 40.770767,62.0700347 44.1333044,59.5481316 C40.9108727,57.4465457 37.4082295,56.1855941 34.3259035,56.1855941 C25.3591368,56.3256998 13.1699385,66.553418 10.3678239,83.6463169 L28.5815686,83.6463169 C30.1227316,78.6025106 32.3644233,73.5587044 35.1665378,69.3555326 L35.1665378,69.3555326 Z" id="Shape" fill="#EDBE26" sketch:type="MSShapeGroup"></path>
    </g>
</svg>