<?xml version="1.0" encoding="UTF-8" standalone="no"?>
<svg width="136px" height="100px" viewBox="0 0 136 100" version="1.1" xmlns="http://www.w3.org/2000/svg" xmlns:xlink="http://www.w3.org/1999/xlink" xmlns:sketch="http://www.bohemiancoding.com/sketch/ns">
    <!-- Generator: Sketch Beta 3.4 (15138) - http://www.bohemiancoding.com/sketch -->
    <title>Slice 1</title>
    <desc>Created with Sketch Beta.</desc>
    <defs></defs>
    <g id="Page-1" stroke="none" stroke-width="1" fill="none" fill-rule="evenodd" sketch:type="MSPage">
        <g id="Shape-+-Path" sketch:type="MSLayerGroup">
            <path d="M129.561702,68.1680851 L135.489362,66.0510638 L132.948936,59.2765957 L127.021277,61.393617 C125.32766,58.8531915 123.210638,56.312766 120.246809,54.6191489 L122.787234,48.6914894 L116.43617,45.7276596 L113.895745,51.6553191 C110.931915,50.8085106 107.544681,51.2319149 104.580851,51.6553191 L102.040426,45.3042553 L95.2659574,47.8446809 L97.806383,54.6191489 C95.2659574,56.312766 93.1489362,58.4297872 91.8787234,60.9702128 L85.5276596,58.006383 L82.5638298,64.3574468 L89.3382979,67.3212766 C88.9148936,70.2851064 88.9148936,73.2489362 89.3382979,75.7893617 L82.1404255,78.7531915 L84.6808511,85.5276596 L91.8787234,82.5638298 C93.1489362,85.1042553 95.2659574,87.2212766 97.806383,88.9148936 L94.4191489,96.112766 L100.770213,99.0765957 L103.734043,92.3021277 C106.697872,93.1489362 109.661702,93.1489362 112.625532,92.7255319 L115.165957,99.5 L121.940426,96.9595745 L119.4,90.6085106 C121.940426,89.3382979 124.480851,87.2212766 126.174468,84.6808511 L132.102128,87.2212766 L135.065957,80.8702128 L129.138298,78.3297872 C129.985106,74.5191489 129.985106,71.1319149 129.561702,68.1680851 L129.561702,68.1680851 Z M106.274468,79.1765957 C102.46383,77.4829787 100.770213,72.8255319 102.46383,69.0148936 C104.157447,65.2042553 108.814894,63.087234 112.625532,64.7808511 C116.43617,66.4744681 118.129787,71.1319149 116.43617,74.9425532 C114.742553,78.7531915 110.085106,80.8702128 106.274468,79.1765957 Z M78.3297872,50.3851064 L88.9148936,50.3851064 L88.9148936,38.9531915 L78.7531915,38.9531915 C77.906383,33.4489362 75.7893617,28.7914894 73.2489362,24.5574468 L80.4468085,17.3595745 L72.4021277,9.31489362 L65.2042553,16.512766 C60.9702128,13.5489362 56.312766,11.4319149 50.8085106,10.5851064 L50.8085106,0 L39.3765957,0 L39.3765957,10.5851064 C34.2957447,11.4319149 29.6382979,13.9723404 25.8276596,16.9361702 L17.7829787,8.89148936 L9.73829787,16.9361702 L17.7829787,24.9808511 C15.2425532,28.7914894 13.5489362,33.4489362 12.7021277,38.5297872 L0,38.5297872 L0,49.9617021 L12.2787234,49.9617021 C13.1255319,54.6191489 15.2425532,58.8531915 17.7829787,62.6638298 L8.89148936,71.5553191 L16.9361702,79.6 L25.8276596,70.7085106 C29.6382979,73.2489362 33.8723404,75.3659574 38.5297872,76.212766 L38.5297872,88.4914894 L49.9617021,88.4914894 L49.9617021,76.6361702 C55.0425532,75.7893617 59.2765957,74.0957447 63.5106383,71.5553191 L71.5553191,79.6 L79.6,71.5553191 L71.9787234,63.9340426 C74.9425532,60.1234043 77.0595745,55.4659574 78.3297872,50.3851064 L78.3297872,50.3851064 Z M45.3042553,56.312766 C38.106383,56.312766 32.6021277,50.8085106 32.6021277,43.6106383 C32.6021277,36.412766 38.106383,30.9085106 45.3042553,30.9085106 C52.5021277,30.9085106 58.006383,36.412766 58.006383,43.6106383 C58.006383,50.8085106 52.0787234,56.312766 45.3042553,56.312766 L45.3042553,56.312766 Z" id="Shape" fill="#EDBF27" sketch:type="MSShapeGroup"></path>
            <path d="M129.561702,68.1680851 L135.489362,66.0510638 L132.948936,59.2765957 L127.021277,61.393617 C125.32766,58.8531915 123.210638,56.312766 120.246809,54.6191489 L122.787234,48.6914894 L116.43617,45.7276596 L113.895745,51.6553191 C110.931915,50.8085106 107.544681,51.2319149 104.580851,51.6553191 L102.040426,45.3042553 L95.2659574,47.8446809 L97.806383,54.6191489 C95.2659574,56.312766 93.1489362,58.4297872 91.8787234,60.9702128 L85.5276596,58.006383 L82.5638298,64.3574468 L89.3382979,67.3212766 C88.9148936,70.2851064 88.9148936,73.2489362 89.3382979,75.7893617 L82.1404255,78.7531915 L84.6808511,85.5276596 L91.8787234,82.5638298 C93.1489362,85.1042553 95.2659574,87.2212766 97.806383,88.9148936 L94.4191489,96.112766 L100.770213,99.0765957 L103.734043,92.3021277 C106.697872,93.1489362 109.661702,93.1489362 112.625532,92.7255319 L115.165957,99.5 L121.940426,96.9595745 L119.4,90.6085106 C121.940426,89.3382979 124.480851,87.2212766 126.174468,84.6808511 L132.102128,87.2212766 L135.065957,80.8702128 L129.138298,78.3297872 C129.985106,74.5191489 129.985106,71.1319149 129.561702,68.1680851 Z M106.274468,79.1765957 C102.46383,77.4829787 100.770213,72.8255319 102.46383,69.0148936 C104.157447,65.2042553 108.814894,63.087234 112.625532,64.7808511 C116.43617,66.4744681 118.129787,71.1319149 116.43617,74.9425532 C114.742553,78.7531915 110.085106,80.8702128 106.274468,79.1765957 Z" id="Path" fill="#FFFFFF" sketch:type="MSShapeGroup"></path>
        </g>
    </g>
</svg>