<?xml version="1.0" encoding="UTF-8" standalone="no"?>
<svg width="127px" height="127px" viewBox="0 0 127 127" version="1.1" xmlns="http://www.w3.org/2000/svg" xmlns:xlink="http://www.w3.org/1999/xlink" xmlns:sketch="http://www.bohemiancoding.com/sketch/ns">
    <!-- Generator: Sketch Beta 3.4 (15138) - http://www.bohemiancoding.com/sketch -->
    <title>Slice 1</title>
    <desc>Created with Sketch Beta.</desc>
    <defs></defs>
    <g id="Page-1" stroke="none" stroke-width="1" fill="none" fill-rule="evenodd" sketch:type="MSPage">
        <g id="Group" sketch:type="MSLayerGroup">
            <path d="M126.85684,73.1900957 L126.85684,52.1864255 L112.50216,47.9170745 C111.555245,44.8197021 110.446394,41.8485851 108.951915,39.0352872 L116.333734,25.6755532 L101.516574,10.8254574 L88.1746809,18.1441489 C85.3627553,16.6469255 82.3985,15.5586596 79.3038723,14.6103723 L75.041383,0.143159574 L54.0377128,0.143159574 L49.7683617,14.609 C46.6709894,15.5586596 43.6998723,16.7210319 40.8865745,18.2182553 L27.5268404,10.8625106 L12.6767447,25.6961383 L19.9968085,39.0448936 C18.4995851,41.8568191 16.4849894,44.8238191 15.5380745,47.9211915 L0.143159574,52.1864255 L0.143159574,73.1900957 L15.5367021,77.4594468 C16.483617,80.5568191 18.1112128,83.5279362 19.6070638,86.341234 L12.4818723,99.7009681 L27.4307766,114.551064 L40.8385426,107.232372 C43.6504681,108.726851 46.6449149,110.630287 49.7436596,111.57583 L54.0377128,126.858213 L75.041383,126.858213 L79.3121064,111.577202 C82.4094787,110.633032 85.3792234,109.061702 88.1938936,107.564479 L101.553628,114.714372 L116.402351,99.7819362 L109.08366,86.3796596 C110.579511,83.5691064 111.555245,80.5774043 112.503532,77.4772872 L126.85684,73.1900957 L126.85684,73.1900957 Z M64.540234,101.73066 C42.9739043,101.73066 25.4916596,84.2497872 25.4916596,62.6875745 C25.4916596,41.1239894 42.9739043,23.6417447 64.540234,23.6417447 C86.1051915,23.6417447 103.584691,41.1239894 103.584691,62.6875745 C103.584691,84.2511596 86.1010745,101.73066 64.540234,101.73066 L64.540234,101.73066 Z" id="Shape" fill="#EDBE27" sketch:type="MSShapeGroup"></path>
            <g transform="translate(31.936170, 47.031915)" id="Shape" fill="#FFFFFF" sketch:type="MSShapeGroup">
                <path d="M35.4365745,0.38562766 L35.3857979,0.371904255 C34.0107128,-0.00137234043 32.5944574,0.809680851 32.2211809,2.18476596 L24.8352447,29.3845532 C24.4619681,30.7596383 25.2730213,32.1758936 26.6481064,32.5491702 L26.698883,32.5628936 C28.0739681,32.9361702 29.4902234,32.125117 29.8635,30.7500319 L37.2494362,3.55024468 C37.6227128,2.17653191 36.8116596,0.758904255 35.4365745,0.38562766 L35.4365745,0.38562766 Z"></path>
                <path d="M18.1464574,5.02962766 C19.1537553,4.02232979 19.1537553,2.38924468 18.1464574,1.38194681 L18.1094043,1.34489362 C17.1021064,0.337595745 15.4690213,0.337595745 14.4617234,1.34489362 L3.02326596,12.7833511 L1.16237234,14.6442447 C0.155074468,15.6515426 0.155074468,17.2846277 1.16237234,18.2905532 L3.02326596,20.1514468 L14.4617234,31.5899043 C15.4690213,32.5972021 17.1021064,32.5972021 18.1094043,31.5899043 L18.1464574,31.5528511 C19.1537553,30.5455532 19.1537553,28.9124681 18.1464574,27.9051702 L8.53184043,18.2905532 C7.52454255,17.2832553 7.52454255,15.6501702 8.53184043,14.6442447 L18.1464574,5.02962766 L18.1464574,5.02962766 Z"></path>
                <path d="M61.9639149,14.6442447 L60.1030213,12.7833511 L48.6645638,1.34489362 C47.657266,0.337595745 46.0241809,0.337595745 45.016883,1.34489362 L44.9798298,1.38194681 C43.9725319,2.38924468 43.9725319,4.02232979 44.9798298,5.02962766 L54.5944468,14.6442447 C55.6017447,15.6515426 55.6017447,17.2846277 54.5944468,18.2919255 L44.9798298,27.9065426 C43.9725319,28.9138404 43.9725319,30.5469255 44.9798298,31.5542234 L45.016883,31.5912766 C46.0241809,32.5985745 47.657266,32.5985745 48.6645638,31.5912766 L60.1030213,20.1528191 L61.9639149,18.2919255 C62.9712128,17.2846277 62.9712128,15.6515426 61.9639149,14.6442447 L61.9639149,14.6442447 Z"></path>
            </g>
        </g>
    </g>
</svg>