<?xml version="1.0" encoding="UTF-8" standalone="no"?>
<svg width="134px" height="135px" viewBox="0 0 134 135" version="1.1" xmlns="http://www.w3.org/2000/svg" xmlns:xlink="http://www.w3.org/1999/xlink" xmlns:sketch="http://www.bohemiancoding.com/sketch/ns">
    <!-- Generator: Sketch Beta 3.4 (15575) - http://www.bohemiancoding.com/sketch -->
    <title>noun_154436-2</title>
    <desc>Created with Sketch Beta.</desc>
    <defs></defs>
    <g id="Page-1" stroke="none" stroke-width="1" fill="none" fill-rule="evenodd" sketch:type="MSPage">
        <g id="noun_154436-2" sketch:type="MSLayerGroup">
            <g id="Group" sketch:type="MSShapeGroup">
                <path d="M32.4375,79.602 C31.8195,79.602 31.2045,79.3485 30.759,78.852 L12.87,58.8435 C12.102,57.984 12.1065,56.685 12.8805,55.8315 L30.7695,36.1065 C31.605,35.187 33.027,35.118 33.948,35.9505 C34.869,36.786 34.938,38.208 34.104,39.129 L17.5755,57.354 L34.1145,75.852 C34.9425,76.779 34.863,78.201 33.9375,79.029 C33.507,79.413 32.9715,79.602 32.4375,79.602 L32.4375,79.602 Z" id="Shape" fill="#FFFFFF"></path>
                <path d="M83.55,79.602 C83.0175,79.602 82.4805,79.413 82.0515,79.029 C81.126,78.201 81.0465,76.779 81.8745,75.852 L98.412,57.354 L81.885,39.1305 C81.0495,38.2095 81.12,36.786 82.041,35.952 C82.962,35.118 84.3855,35.1885 85.2195,36.108 L103.1085,55.833 C103.8825,56.6865 103.887,57.9855 103.119,58.845 L85.2285,78.852 C84.7845,79.3485 84.168,79.602 83.55,79.602 L83.55,79.602 Z" id="Shape" fill="#FFFFFF"></path>
                <circle id="Oval" fill="#EDBE26" cx="43.8195" cy="73.977" r="3.75"></circle>
                <circle id="Oval" fill="#EDBE26" cx="57.9915" cy="73.977" r="3.75"></circle>
                <circle id="Oval" fill="#EDBE26" cx="72.117" cy="73.977" r="3.75"></circle>
                <path d="M57.9915,114.774 C26.403,114.774 0.7035,89.0745 0.7035,57.486 C0.7035,25.8975 26.403,0.198 57.9915,0.198 C89.5785,0.198 115.278,25.8975 115.278,57.486 C115.278,65.5995 113.616,73.4415 110.3385,80.793 C109.833,81.9285 108.501,82.4415 107.3685,81.933 C106.233,81.426 105.723,80.0955 106.2285,78.963 C109.248,72.1905 110.778,64.965 110.778,57.4875 C110.778,28.38 87.099,4.6995 57.9915,4.6995 C28.884,4.6995 5.2035,28.3785 5.2035,57.486 C5.2035,86.5935 28.884,110.274 57.9915,110.274 C64.968,110.274 71.7465,108.9345 78.1395,106.293 C79.293,105.8205 80.6055,106.3665 81.0795,107.5125 C81.5535,108.6615 81.0075,109.9785 79.86,110.4525 C72.918,113.319 65.5605,114.774 57.9915,114.774 L57.9915,114.774 Z" id="Shape" fill="#FFFFFF"></path>
            </g>
            <g id="Group" transform="translate(78.000000, 78.000000)" fill="#EDBE26" sketch:type="MSShapeGroup">
                <path d="M47.079,56.4225 C44.8395,56.4225 42.7245,55.5705 41.1045,54.0135 C40.209,53.1525 40.182,51.729 41.043,50.832 C41.907,49.938 43.3275,49.9095 44.2245,50.7705 C45.0195,51.5355 46.0875,51.9855 47.1645,51.9225 C48.264,51.9015 49.2915,51.453 50.0565,50.6565 C51.633,49.017 51.5835,46.401 49.9425,44.823 C49.047,43.962 49.02,42.5385 49.881,41.6415 C50.7435,40.7475 52.167,40.7175 53.0625,41.58 C56.49,44.877 56.5965,50.349 53.2995,53.7765 C51.7035,55.437 49.5555,56.376 47.253,56.4225 C47.193,56.421 47.136,56.4225 47.079,56.4225 L47.079,56.4225 Z" id="Shape"></path>
                <path d="M16.359,32.202 C15.9375,32.202 15.5145,32.184 15.09,32.151 C6.4335,31.4625 -0.051,23.8605 0.6345,15.204 C0.9015,12.837 2.613,9.519 6.27,9.519 C6.3675,9.519 6.4695,9.5205 6.5715,9.5265 C10.446,9.717 12.2055,12.8775 12.231,15.9285 C12.249,18.084 13.5525,20.367 16.0095,20.5635 C18.276,20.739 20.265,19.044 20.4465,16.7775 C20.703,13.56 17.3595,12.5295 16.3305,12.2895 C14.496,11.8635 11.676,9.996 11.427,6.597 C11.3025,4.9155 11.937,3.2985 13.167,2.1645 C14.4135,1.017 16.0845,0.51 17.7525,0.7725 C26.553,2.16 32.6925,9.4365 32.034,17.7 C31.9065,19.3245 31.71,20.589 31.452,21.456 C31.0995,22.647 29.8455,23.3325 28.6545,22.971 C27.4635,22.617 26.7855,21.3645 27.1395,20.1735 C27.297,19.641 27.45,18.582 27.5475,17.346 C28.023,11.352 23.61,6.252 17.052,5.217 C16.755,5.178 16.446,5.2635 16.215,5.475 C16.0605,5.6175 15.8835,5.8695 15.9135,6.267 C15.987,7.269 17.0055,7.827 17.3475,7.9065 C22.3095,9.0615 25.284,12.684 24.93,17.1345 C24.5535,21.8745 20.3535,25.4385 15.651,25.0485 C11.1015,24.687 7.77,20.8665 7.7295,15.966 C7.713,14.088 6.7215,14.04 6.3495,14.0205 C6.333,14.0205 6.318,14.019 6.303,14.019 C5.3055,14.019 5.112,15.618 5.1105,15.6345 C4.629,21.741 9.261,27.1725 15.444,27.666 C17.055,27.7935 18.6465,27.582 20.157,27.0345 C21.327,26.61 22.6155,27.2145 23.0385,28.383 C23.4615,29.5515 22.857,30.843 21.69,31.2645 C19.9695,31.887 18.1815,32.202 16.359,32.202 L16.359,32.202 Z" id="Shape"></path>
                <path d="M42.654,54.5775 C42.0555,54.5775 41.457,54.339 41.013,53.868 L19.4415,30.9 C18.5925,29.994 18.636,28.569 19.5405,27.7185 C20.4465,26.871 21.8685,26.9145 22.722,27.8175 L44.2935,50.787 C45.1425,51.693 45.099,53.118 44.1945,53.9685 C43.7595,54.375 43.206,54.5775 42.654,54.5775 L42.654,54.5775 Z" id="Shape"></path>
                <path d="M51.672,45.582 C51.093,45.582 50.5155,45.3615 50.076,44.919 L27.702,22.3995 C26.826,21.5175 26.832,20.0925 27.7125,19.2165 C28.596,18.342 30.018,18.3465 30.8955,19.227 L53.2695,41.745 C54.1455,42.627 54.1395,44.052 53.259,44.928 C52.8195,45.363 52.245,45.582 51.672,45.582 L51.672,45.582 Z" id="Shape"></path>
            </g>
        </g>
    </g>
</svg>