<?xml version="1.0" encoding="UTF-8" standalone="no"?>
<svg width="92px" height="96px" viewBox="0 0 92 96" version="1.1" xmlns="http://www.w3.org/2000/svg" xmlns:xlink="http://www.w3.org/1999/xlink" xmlns:sketch="http://www.bohemiancoding.com/sketch/ns">
    <!-- Generator: Sketch Beta 3.4.1 (15680) - http://www.bohemiancoding.com/sketch -->
    <title>Shape</title>
    <desc>Created with Sketch Beta.</desc>
    <defs></defs>
    <g id="Page-1" stroke="none" stroke-width="1" fill="none" fill-rule="evenodd" sketch:type="MSPage">
        <path d="M56.9,83.9 L56.9,86.7 C56.9,88.9 55.3,90.8 53.1,91.1 L52.4,93.6 C52,95 50.8,95.9 49.4,95.9 L42.6,95.9 C41.2,95.9 39.9,94.9 39.6,93.6 L38.9,91 C36.8,90.7 35.1,88.8 35.1,86.6 L35.1,83.8 C35.1,82.3 36.3,81.1 37.8,81.1 L54.2,81.1 C55.7,81.2 56.9,82.4 56.9,83.9 L56.9,83.9 Z M46,14.9 C47.5,14.9 48.7,13.7 48.7,12.2 L48.7,2.9 C48.7,1.4 47.5,0.2 46,0.2 C44.5,0.2 43.3,1.4 43.3,2.9 L43.3,12.2 C43.3,13.7 44.5,14.9 46,14.9 L46,14.9 Z M14.7,46.2 C14.7,44.7 13.5,43.5 12,43.5 L2.7,43.5 C1.2,43.5 0,44.7 0,46.2 C0,47.7 1.2,48.9 2.7,48.9 L12,48.9 C13.5,48.8 14.7,47.6 14.7,46.2 L14.7,46.2 Z M89.3,43.5 L80,43.5 C78.5,43.5 77.3,44.7 77.3,46.2 C77.3,47.7 78.5,48.9 80,48.9 L89.3,48.9 C90.8,48.9 92,47.7 92,46.2 C91.9,44.7 90.7,43.5 89.3,43.5 L89.3,43.5 Z M20.1,68.3 L13.5,74.9 C12.5,75.9 12.5,77.6 13.5,78.7 C14,79.2 14.7,79.5 15.4,79.5 C16.1,79.5 16.8,79.2 17.3,78.7 L23.9,72.1 C24.9,71.1 24.9,69.4 23.9,68.3 C22.8,67.3 21.2,67.3 20.1,68.3 L20.1,68.3 Z M70,24.8 C70.7,24.8 71.4,24.5 71.9,24 L78.5,17.4 C79.5,16.4 79.5,14.7 78.5,13.6 C77.5,12.6 75.8,12.6 74.7,13.6 L68.1,20.2 C67.1,21.2 67.1,22.9 68.1,24 C68.6,24.6 69.3,24.8 70,24.8 L70,24.8 Z M20.1,24.1 C20.6,24.6 21.3,24.9 22,24.9 C22.7,24.9 23.4,24.6 23.9,24.1 C24.9,23.1 24.9,21.4 23.9,20.3 L17.3,13.7 C16.3,12.7 14.6,12.7 13.5,13.7 C12.5,14.7 12.5,16.4 13.5,17.5 L20.1,24.1 L20.1,24.1 Z M71.9,68.3 C70.9,67.3 69.2,67.3 68.1,68.3 C67.1,69.3 67.1,71 68.1,72.1 L74.7,78.7 C75.2,79.2 75.9,79.5 76.6,79.5 C77.3,79.5 78,79.2 78.5,78.7 C79.5,77.7 79.5,76 78.5,74.9 L71.9,68.3 L71.9,68.3 Z M45.8,22.6 C32.7,22.7 22.3,33.3 22.4,46.4 C22.5,52.6 25,58.3 29,62.5 C32.1,65.7 34.1,69.9 34.8,74.3 C35.1,76.2 36.7,77.6 38.6,77.6 L53.2,77.6 C55.1,77.6 56.8,76.2 57.1,74.3 C57.8,69.9 59.8,65.8 62.9,62.6 C67,58.4 69.5,52.6 69.5,46.2 C69.6,33.1 58.9,22.5 45.8,22.6 L45.8,22.6 Z M61.1,48.6 L59,48.6 C58.7,50.3 58,52 57,53.6 L58.5,55.1 C59,55.6 59,56.5 58.5,57.1 L57,58.6 C56.5,59.1 55.6,59.1 55,58.6 L53.5,57.1 C52,58.2 50.3,58.8 48.5,59.2 L48.5,61.3 C48.5,62.1 47.9,62.7 47.1,62.7 L45,62.7 C44.2,62.7 43.6,62.1 43.6,61.3 L43.6,59.3 C41.8,59 40.1,58.3 38.6,57.2 L37.2,58.6 C36.7,59.1 35.8,59.1 35.2,58.6 L33.7,57.1 C33.2,56.6 33.2,55.7 33.7,55.1 L35.1,53.7 C34.1,52.2 33.4,50.5 33,48.7 L31,48.7 C30.2,48.7 29.6,48.1 29.6,47.3 L29.6,45.2 C29.6,44.4 30.2,43.8 31,43.8 L33.1,43.8 C33.4,42 34.1,40.3 35.2,38.8 L33.7,37.3 C33.2,36.8 33.2,35.9 33.7,35.3 L35.2,33.8 C35.7,33.3 36.6,33.3 37.2,33.8 L38.7,35.3 C40.2,34.3 41.9,33.6 43.7,33.3 L43.7,31.2 C43.7,30.4 44.3,29.8 45.1,29.8 L47.2,29.8 C48,29.8 48.6,30.4 48.6,31.2 L48.6,33.3 C50.3,33.6 52,34.3 53.5,35.3 L55,33.8 C55.5,33.3 56.4,33.3 57,33.8 L58.5,35.3 C59,35.8 59,36.7 58.5,37.3 L57,38.8 C58,40.3 58.7,42 59.1,43.7 L61.2,43.7 C62,43.7 62.6,44.3 62.6,45.1 L62.6,47.2 C62.5,48 61.8,48.6 61.1,48.6 L61.1,48.6 Z M40.9,41.1 C38.1,43.9 38.1,48.4 40.9,51.2 C43.7,54 48.2,54 51,51.2 C53.8,48.4 53.8,43.9 51,41.1 C48.3,38.3 43.7,38.3 40.9,41.1 L40.9,41.1 Z" id="Shape" fill="#000000" sketch:type="MSShapeGroup"></path>
    </g>
</svg>