<?xml version="1.0" encoding="UTF-8" standalone="no"?>
<svg width="111px" height="110px" viewBox="0 0 111 110" version="1.1" xmlns="http://www.w3.org/2000/svg" xmlns:xlink="http://www.w3.org/1999/xlink" xmlns:sketch="http://www.bohemiancoding.com/sketch/ns">
    <!-- Generator: Sketch Beta 3.4 (15138) - http://www.bohemiancoding.com/sketch -->
    <title>Slice 1</title>
    <desc>Created with Sketch Beta.</desc>
    <defs></defs>
    <g id="Page-1" stroke="none" stroke-width="1" fill="none" fill-rule="evenodd" sketch:type="MSPage">
        <path d="M17.9609533,18.6907403 C17.6638052,18.6760664 17.381331,18.6528325 17.0817373,18.6528325 C7.68305213,18.6528325 0,26.3358847 0,35.7345698 C0,41.4195148 2.80737722,46.4588046 7.10709836,49.567243 C6.98970651,65.960526 14.7192262,82.0823403 29.3858707,91.7170319 C32.8941751,94.0220699 36.6201436,95.6900124 40.4292646,96.9519748 C42.3466649,104.285297 49.0233264,109.753801 56.9374938,109.753801 C64.895683,109.753801 71.6090296,104.231492 73.4848535,96.8370286 C83.3628887,93.3898658 92.2687726,86.9614391 98.4758668,77.6165586 L105.316388,82.1251394 L106.118565,66.4961263 L106.959874,50.905021 L93.0501621,58.0121193 L79.1404505,65.0825327 L86.4774413,69.8968215 C82.459216,75.8764689 76.9234565,80.1465976 70.7713898,82.7365553 C67.665397,78.4187362 62.6371127,75.5915491 56.9374938,75.5915491 C51.2317606,75.5915491 46.1337749,78.4089536 43.029005,82.7365553 C41.0565773,81.9539429 39.1061606,81.008694 37.2584618,79.794422 C27.472139,73.3659953 21.9388251,63.0697516 21.2467023,52.2807067 C28.6485032,50.4109969 34.1634745,43.6976504 34.1634745,35.7345698 C34.1634745,31.9939274 32.9333057,28.5430961 30.8765027,25.7220231 C42.5288668,13.1721005 61.646619,10.3718157 76.4648946,20.1043339 C76.6030746,20.1948234 76.7143523,20.3146609 76.8476409,20.4100418 C76.2325566,22.1684739 75.8913865,24.0663089 75.8913865,26.0277311 C75.8913865,35.4264162 83.5744386,43.1094683 92.9731237,43.1094683 C102.371809,43.1094683 110.054861,35.4264162 110.054861,26.0277311 C110.054861,16.6290459 102.371809,8.94721664 92.9731237,8.94721664 C90.8111571,8.94721664 88.7286746,9.35319679 86.821057,10.09301 C86.0090967,9.42412104 85.1849081,8.80169966 84.2995779,8.22085456 C75.6712768,2.55364063 65.8861768,-0.127418065 56.2502623,0.00464776779 C41.698564,0.204091633 27.5283892,6.76935322 17.9609533,18.6907403 Z M92.9731237,14.6407214 C99.2951641,14.6407214 104.361356,19.7056907 104.361356,26.0277311 C104.361356,28.8524725 103.330509,31.4204193 101.647892,33.4038524 C101.016911,32.6909415 100.291772,32.3778965 99.622883,32.2189284 C98.5137746,31.0181076 98.7815747,26.2955312 98.7815747,26.2955312 C98.7962487,26.2160472 98.8109227,26.1475686 98.8194825,26.0668617 C98.8194825,26.0668617 100.330903,20.91018 96.2980034,19.0734867 C96.2980034,19.0734867 95.5569673,18.9035131 94.999356,19.0355789 C94.6153868,18.9414209 94.2399775,18.8815021 93.8902476,18.8815021 C93.7875297,18.8815021 93.7166055,18.9132957 93.6224474,18.9206327 C93.5270665,18.9132957 93.4157889,18.8815021 93.3167395,18.8815021 C92.87652,18.8815021 92.3947243,18.9634318 91.9031459,19.1113945 L91.8652381,19.1493023 C90.5604766,19.6054185 88.3422598,21.3430625 88.6932125,24.8048993 C88.6834298,24.8171276 88.6638645,24.8318016 88.6553047,24.8440299 C88.2921237,25.3001462 88.3544881,25.9250132 88.4645429,26.4483852 C88.4951137,27.5269228 88.566038,30.5778882 88.2737812,32.1039822 C88.173509,32.1247704 88.0622313,32.1247704 87.9680732,32.14189 C87.0093731,32.3130865 85.8501286,32.7264036 85.0247171,34.2060301 C82.9006583,32.14189 81.5861141,29.24867 81.5861141,26.0277311 C81.5861141,19.7056907 86.6510834,14.6407214 92.9731237,14.6407214 L92.9731237,14.6407214 Z M95.9543876,22.6649436 C96.1096873,23.1002718 96.5584665,24.1885921 97.2909428,25.0347917 L97.2909428,26.0277311 L97.5208352,25.2634612 C97.5281722,25.2695754 97.5526288,25.2952548 97.558743,25.301369 C97.5575201,25.308706 97.5599658,25.3331626 97.558743,25.3404996 C97.6712435,25.4481088 97.8179833,25.5165874 97.9414893,25.6070769 C97.9598318,25.7660451 97.90725,26.0240626 97.8265431,26.3725696 C97.5550745,27.5428197 97.0952897,27.5954014 96.9852348,27.5954014 C96.9852348,27.5954014 96.9253161,28.7045099 95.9164799,29.8869882 L95.9164799,29.9261188 C95.130199,30.7258508 94.3121246,31.102483 93.5087241,31.0719122 C92.5084477,31.0303359 91.7221668,30.339436 91.3308607,29.9261188 C90.3000135,28.7314122 90.25966,27.5954014 90.25966,27.5954014 L90.2217522,27.5954014 C90.1618335,27.5954014 89.9845229,27.5782818 89.8023209,27.365509 L89.6103363,27.0218933 C89.5308523,26.8531425 89.4464769,26.6538209 89.3816668,26.3725696 C89.234927,25.7379199 89.2740576,25.4799024 89.3816668,25.3784074 C89.6005537,25.3930814 89.8169949,25.3857444 90.0309905,25.3784074 L90.2987906,26.8299087 L90.6044986,25.3404996 C90.9053152,25.3025918 91.1963492,25.2585699 91.4824918,25.1876456 C92.7151062,24.8807148 93.7960895,24.2570706 94.6166097,23.6970137 C95.2206886,23.2849194 95.682919,22.9144013 95.9543876,22.6649436 L95.9543876,22.6649436 Z M17.0817373,24.3463374 C23.4037776,24.3463374 28.4687469,29.4125295 28.4687469,35.7345698 C28.4687469,39.0533353 27.07961,42.028485 24.8381593,44.1036306 C24.1166885,42.8477823 23.1433144,42.3990031 22.2787724,42.1923445 C21.1696639,40.9915237 21.4374641,36.2689473 21.4374641,36.2689473 C21.4521381,36.1906861 21.4668121,36.0830769 21.4753719,36.0011471 C21.4753719,36.0011471 22.986792,30.8835961 18.9538927,29.0469028 C18.9538927,29.0469028 18.2128567,28.8769291 17.6552454,29.008995 C17.2712762,28.9160598 16.8958668,28.856141 16.5461369,28.856141 C16.4434191,28.856141 16.3724948,28.848804 16.2783368,28.856141 C16.1829559,28.848804 16.0716782,28.856141 15.9726288,28.856141 C15.5324094,28.856141 15.0506137,28.9380707 14.5590353,29.0848105 L14.5211275,29.0848105 C13.216366,29.5409268 10.9981491,31.2785708 11.3491018,34.7404076 C11.3393192,34.7526359 11.3576617,34.7673099 11.3491018,34.7783153 C10.9859208,35.2356544 11.0103774,35.8605215 11.1204323,36.3838935 C11.1510031,37.4624311 11.2219273,40.5133964 10.9296705,42.0394905 C10.8293983,42.0602787 10.7181206,42.0981864 10.6239626,42.1153061 C9.92694846,42.2400349 9.14800461,42.4943839 8.44487633,43.1865067 C6.73046617,41.1945137 5.69374938,38.5886592 5.69374938,35.7345698 C5.69374938,29.4125295 10.7596969,24.3463374 17.0817373,24.3463374 L17.0817373,24.3463374 Z M95.8773492,31.0719122 C95.8810177,31.393517 95.8969146,31.6833281 95.9543876,31.8361821 C96.1390352,32.3326518 98.2569799,32.8658064 99.1251905,33.0211061 C99.6644593,33.1177098 100.248973,33.2803464 100.807807,33.8232837 C98.343801,34.6902715 96.1549321,35.0669037 94.2338633,35.1610617 L93.661578,35.7345698 L93.0880699,35.1989695 C88.9023167,35.1720672 86.4052942,33.8257294 86.4004029,33.8232837 C86.959237,33.2803464 87.5816584,33.1177098 88.1197044,33.0211061 C88.9879149,32.8658064 91.1070824,32.3326518 91.29173,31.8361821 C91.3492031,31.6869966 91.3650999,31.4228649 91.3687684,31.10982 C91.8994774,31.5084631 92.614834,31.8753127 93.4708163,31.9132205 C93.5172839,31.9156661 93.5759798,31.9132205 93.6224474,31.9132205 C94.3952771,31.9132205 95.1534328,31.625855 95.8773492,31.0719122 L95.8773492,31.0719122 Z M18.610277,32.6004519 C18.7655766,33.0357801 19.2143559,34.1241003 19.9468321,34.9702999 L19.9468321,36.0011471 L20.1767245,35.2381001 C20.1840615,35.2429914 20.2085181,35.2307631 20.2146323,35.2381001 C20.2134095,35.2442143 20.2158551,35.2686709 20.2146323,35.2760079 C20.3271328,35.3836171 20.4738726,35.4912263 20.5973787,35.5817158 C20.6157211,35.740684 20.6010471,35.9595709 20.5203402,36.3068551 C20.2488716,37.4783279 19.7890868,37.5688175 19.6802548,37.5688175 L19.6411242,37.5688175 C-6.11415894,-6.26236515 19.5812054,38.6400181 18.5723692,39.8237193 L18.5723692,39.8616271 C17.7860884,40.6613591 16.9680139,41.0758991 16.1646134,41.0465511 C15.164337,41.003752 14.3780562,40.312852 13.98675,39.8995349 C13.9855272,39.8934207 13.98675,39.8677413 13.98675,39.8616271 C12.9559028,38.6669204 12.9155494,37.5688175 12.9155494,37.5688175 L12.8776416,37.5688175 C12.8177228,37.5688175 12.6404122,37.5516978 12.4582103,37.3389251 L12.2662257,36.9953094 C12.1867416,36.8265586 12.1023662,36.5893292 12.0375561,36.3068551 C11.8908163,35.6734282 11.9690775,35.4154107 12.0754639,35.3139157 C12.2943508,35.3285897 12.4728842,35.3591604 12.6868798,35.3518235 L12.9925878,36.7666398 L13.2603879,35.2760079 C13.5612045,35.2381001 13.8522385,35.1940782 14.1383811,35.1231539 C15.3709956,34.8162231 16.4519789,34.2304867 17.272499,33.6704297 C17.8765779,33.2583354 18.3388083,32.8499096 18.610277,32.6004519 L18.610277,32.6004519 Z M58.9258182,32.7533059 L52.9253827,66.3811801 L54.5688686,66.3811801 L60.5680813,32.7533059 L58.9258182,32.7533059 L58.9258182,32.7533059 Z M50.3659957,39.5938269 L36.9527538,49.1465889 L36.9527538,51.6692908 L50.3659957,61.2232756 L50.3659957,58.05125 L39.3984174,50.4085513 L50.3659957,42.726722 L50.3659957,39.5938269 L50.3659957,39.5938269 Z M62.555183,39.5938269 L62.555183,42.726722 L73.5227613,50.4085513 L62.555183,58.05125 L62.555183,61.2232756 L75.9684249,51.6692908 L75.9684249,49.1465889 L62.555183,39.5938269 L62.555183,39.5938269 Z M18.5332386,41.0465511 C18.5369071,41.3681559 18.5528039,41.657967 18.610277,41.8095981 C18.7949246,42.3060678 20.9128693,42.8392225 21.7810798,42.9945221 C22.3203486,43.0911259 22.94277,43.2549853 23.5016042,43.7979226 C21.0375981,44.6636875 18.8108214,45.0415426 16.8897527,45.1344778 L16.3174674,45.7079859 L15.7439593,45.1344778 C11.5582061,45.1075755 9.10031417,43.8003683 9.09542285,43.7979226 C9.65303414,43.2549853 10.2375477,43.0911259 10.7755937,42.9945221 C11.6438043,42.8404453 13.7629718,42.3060678 13.9476194,41.8095981 C14.0050925,41.6616355 14.0209893,41.396281 14.0246578,41.0844589 C14.5553668,41.483102 15.2707234,41.8487288 16.1267056,41.8866365 C16.1731732,41.8890822 16.2318692,41.8866365 16.2783368,41.8866365 C17.0511665,41.8866365 17.8093222,41.5992711 18.5332386,41.0465511 L18.5332386,41.0465511 Z M56.9374938,81.2850539 C63.2595341,81.2850539 68.3257262,86.3500232 68.3257262,92.6720636 C68.3257262,95.9614811 66.939035,98.8926089 64.7342692,100.965309 C64.0763857,100.444382 63.3390182,100.236501 62.708037,100.124 C61.7346629,99.9491355 60.5399562,99.5957372 60.1095194,99.3597306 C60.0960683,99.1640775 60.0703888,98.7470919 60.1095194,98.098991 C60.1339761,98.0720887 60.1621012,98.0500778 60.1865578,98.0219526 C60.7625116,97.2503458 61.0180834,96.5252065 61.1415894,96.034851 C61.5133303,95.773165 61.9058593,95.2656898 62.1345289,94.2776417 C62.2678175,93.7041336 62.3937692,92.9606519 61.9828977,92.443394 C61.9731151,92.4311657 61.9547726,92.4177146 61.9437671,92.4054862 C62.3118395,88.7761215 59.9860134,86.9589934 58.6201103,86.482089 L58.5809797,86.482089 C58.0832871,86.3316807 57.5782576,86.257088 57.1294783,86.2521967 L57.0915706,86.2521967 C56.9827385,86.2521967 56.8836892,86.2448597 56.7858626,86.2521967 C56.6855904,86.2436368 56.5828725,86.2521967 56.4801547,86.2521967 C56.0167014,86.2521967 55.5422427,86.3267894 55.0274305,86.482089 L54.9895227,86.482089 C53.6223968,86.9589934 51.2965707,88.7761215 51.6646431,92.4054862 C51.6536376,92.4177146 51.6352951,92.4311657 51.6267353,92.443394 C51.214641,92.9606519 51.3026849,93.7041336 51.4347507,94.2776417 C51.6658659,95.2656898 52.0559493,95.773165 52.428913,96.034851 C52.5511961,96.521538 52.8189963,97.2185522 53.3839446,97.9840449 L53.3839446,98.0219526 C53.416961,98.0659746 53.4646515,98.0928769 53.4988908,98.1368988 C53.5355757,98.7580974 53.5160104,99.1555177 53.4988908,99.3597306 C53.0672311,99.5945143 51.8725245,99.9503584 50.9003732,100.124 C50.3170825,100.227941 49.6433021,100.410143 49.0282177,100.850363 C46.8907078,98.7849997 45.5504841,95.9027852 45.5504841,92.6720636 C45.5504841,86.3500232 50.6166762,81.2850539 56.9374938,81.2850539 L56.9374938,81.2850539 Z M54.645907,90.5712386 C-6.11415894,-6.26236515 56.5730899,92.5473347 58.963726,92.9777715 C58.963726,92.9777715 58.4391312,92.0447509 58.0086944,91.1826544 C58.0086944,91.1826544 59.3990541,92.719754 60.6059891,92.9777715 C60.6059891,92.9777715 60.7845226,92.7527705 60.9887355,92.3663556 C60.9679473,92.5705685 60.9544962,92.7576618 60.9116971,92.9777715 C60.9116971,92.9777715 60.9862898,92.9398637 61.0657739,92.9398637 C61.2357475,92.9398637 61.4399604,93.0951634 61.217405,94.0477493 C60.933708,95.2754724 60.4531351,95.3476195 60.3394118,95.3476195 C60.3394118,95.3476195 60.2513679,96.514201 59.1923956,97.7541525 L59.1923956,97.7932831 C58.3694298,98.6309229 57.5513553,99.0087779 56.7088242,98.9769843 C55.6608574,98.9341852 54.8268861,98.2261655 54.4160146,97.7932831 C53.3362541,96.5423262 53.2689984,95.3476195 53.2689984,95.3476195 L53.2310906,95.3476195 C53.1161444,95.3476195 52.6367944,95.2742496 52.3518745,94.0477493 C52.130542,93.0951634 52.3726627,92.9398637 52.5438591,92.9398637 C52.6221204,92.9398637 52.6967131,92.9777715 52.6967131,92.9777715 L53.1173672,94.2006033 C-6.11415894,-6.26236515 52.8336703,90.8292561 54.645907,90.5712386 L54.645907,90.5712386 Z M59.1544878,99.0161149 C59.1581563,99.3523936 59.1703846,99.6581016 59.2315262,99.8182925 C59.3220157,100.060413 59.8588389,100.292751 60.4922658,100.505524 C59.5726963,101.406751 58.2483694,101.996156 56.7858626,101.996156 C55.3233558,101.996156 54.0357139,101.405528 53.1173672,100.505524 C53.7483485,100.291528 54.2876173,100.060413 54.3781068,99.8182925 C54.4368027,99.6617701 54.4502539,99.3817416 54.4539224,99.0540227 C55.0115337,99.4722311 55.7366729,99.8549775 56.6317858,99.8941081 C56.6819219,99.8965538 56.7357265,99.8941081 56.7858626,99.8941081 C57.5941544,99.8941081 58.3951092,99.5957372 59.1544878,99.0161149 L59.1544878,99.0161149 Z" id="Shape" fill="#EDBE26" sketch:type="MSShapeGroup"></path>
    </g>
</svg>