<?xml version="1.0" encoding="UTF-8" standalone="no"?>
<svg width="102px" height="82px" viewBox="0 0 102 82" version="1.1" xmlns="http://www.w3.org/2000/svg" xmlns:xlink="http://www.w3.org/1999/xlink" xmlns:sketch="http://www.bohemiancoding.com/sketch/ns">
    <!-- Generator: Sketch Beta 3.4 (15138) - http://www.bohemiancoding.com/sketch -->
    <title>Slice 1</title>
    <desc>Created with Sketch Beta.</desc>
    <defs></defs>
    <g id="Page-1" stroke="none" stroke-width="1" fill="none" fill-rule="evenodd" sketch:type="MSPage">
        <path d="M99.2278983,31.382592 C94.5793005,37.3440356 75.4293764,24.3190221 75.4293764,24.3190221 C75.4293764,24.3190221 77.9682259,15.7088995 72.5252798,14.0844445 C67.0823337,12.4599894 51.4367371,12.2505471 51.4367371,12.2505471 C51.4367371,12.2505471 35.1066217,12.0832486 29.6291943,13.5863804 C24.1504897,15.0882351 26.4964991,23.7532725 26.4964991,23.7532725 C26.4964991,23.7532725 7.06050736,36.3466304 2.54600373,30.2830199 C-1.9684999,24.2194093 0.896006929,15.9106793 0.896006929,15.9106793 C0.896006929,15.9106793 1.65587388,13.7485705 6.22529226,10.0999321 C18.5466306,-0.180620766 45.1675155,-0.166572806 52.6205971,0.053086211 C62.478434,0.203782513 85.1199148,1.62518069 95.9981445,11.1216019 C100.484552,14.8711302 101.272515,16.9642763 101.272515,16.9642763 C101.272515,16.9642763 103.877773,25.4211485 99.2278983,31.382592 L99.2278983,31.382592 Z M94.7082864,53.7929201 L94.7082864,69.5189732 C94.7082864,72.8892066 93.2383589,76.932465 91.4402199,78.5058366 C89.6433581,80.0792082 85.414922,81.3652351 82.0446886,81.3652351 L75.4268222,81.3652351 C74.8457475,78.1508063 72.0233845,75.6911362 68.6493198,75.6911362 L33.3519038,75.6911362 C29.976562,75.6911362 27.1541991,78.1508063 26.5744014,81.3652351 L19.956535,81.3652351 C16.5863016,81.3652351 12.3591426,80.0792082 10.5610037,78.5058366 C8.76414183,76.9337421 7.29293725,72.8892066 7.29293725,69.5189732 L7.29293725,53.7929201 C7.29293725,50.4226867 9.69769265,46.3181281 12.6375476,44.6706855 L20.5337785,40.2455779 C23.4736334,38.5981353 27.0060569,34.7336691 28.3853112,31.6584429 L31.3379371,25.0725036 C32.7159143,21.9972774 36.602091,19.4814154 39.9710473,19.4814154 L44.8725084,19.4814154 L57.1274382,19.4814154 L62.0288992,19.4814154 C65.3991326,19.4814154 69.2840322,21.9972774 70.6620094,25.0725036 L73.6146353,31.6584429 C74.9926125,34.7336691 78.5263131,38.5981353 81.4661681,40.2455779 L89.3623989,44.6706855 C92.303531,46.3181281 94.7082864,50.4226867 94.7082864,53.7929201 L94.7082864,53.7929201 Z M68.534382,46.9873218 C68.534382,37.3044459 60.6841263,29.4541902 51.0012503,29.4541902 C41.3183744,29.4541902 33.4681187,37.3044459 33.4681187,46.9873218 C33.4681187,56.6701978 41.3183744,64.5204535 51.0012503,64.5204535 C60.6841263,64.5204535 68.534382,56.6714749 68.534382,46.9873218 L68.534382,46.9873218 Z M65.6315625,46.9885989 C65.6315625,38.9212384 59.0686109,32.3582867 51.0012503,32.3582867 C42.9338898,32.3582867 36.3709382,38.9212384 36.3709382,46.9885989 C36.3709382,55.0559595 42.9338898,61.617634 51.0012503,61.617634 C59.0686109,61.617634 65.6315625,55.0546824 65.6315625,46.9885989 L65.6315625,46.9885989 Z M63.4541287,46.9885989 C63.4541287,53.8554974 57.8681488,59.4414773 51.0012503,59.4414773 C44.1343519,59.4414773 38.548372,53.8554974 38.548372,46.9885989 C38.548372,40.1217005 44.1343519,34.5357206 51.0012503,34.5357206 C57.8681488,34.5344435 63.4541287,40.1217005 63.4541287,46.9885989 L63.4541287,46.9885989 Z" id="Shape" fill="#EDBE26" sketch:type="MSShapeGroup"></path>
    </g>
</svg>