<?xml version="1.0" encoding="UTF-8" standalone="no"?>
<svg width="189px" height="83px" viewBox="0 0 189 83" version="1.1" xmlns="http://www.w3.org/2000/svg" xmlns:xlink="http://www.w3.org/1999/xlink" xmlns:sketch="http://www.bohemiancoding.com/sketch/ns">
    <!-- Generator: Sketch Beta 3.4 (15575) - http://www.bohemiancoding.com/sketch -->
    <title>Slice 1</title>
    <desc>Created with Sketch Beta.</desc>
    <defs></defs>
    <g id="Page-1" stroke="none" stroke-width="1" fill="none" fill-rule="evenodd" sketch:type="MSPage">
        <g id="Shape-+-Shape" sketch:type="MSLayerGroup">
            <path d="M41.0630938,0.00118604018 C40.888505,0.013027725 40.7147772,0.0352648814 40.5428345,0.0677792229 C39.5537344,0.193675441 38.6366312,0.651493327 37.9415383,1.36634629 L1.26534295,38.1112159 C-0.421780982,39.8252351 -0.421780982,42.5757954 1.26534295,44.2898146 L37.9415383,80.96601 C39.0115569,82.2268866 40.6977578,82.7820347 42.3075429,82.4034301 C43.917328,82.0248254 45.179322,80.7762927 45.5751676,79.1706601 C45.9710131,77.5650275 45.433979,75.8729704 44.1846492,74.7894923 L10.6300093,41.2327713 L44.1846492,7.60945716 C45.5121452,6.35892558 45.9314983,4.41953858 45.2392408,2.7322762 C44.5469833,1.04501382 42.8863589,-0.0409907334 41.0630938,0.00118604018 L41.0630938,0.00118604018 Z M142.747477,3.21802963 C142.158951,4.84454984 142.577087,6.66497951 143.816375,7.87166782 L177.371015,41.4929009 L143.816375,75.0496219 C142.092387,76.7736094 142.092387,79.5687453 143.816375,81.2927328 C145.540362,83.0167202 148.335498,83.0167202 150.059486,81.2927328 L186.735681,44.5478632 C188.42144,42.8340949 188.42144,40.0851137 186.735681,38.3713455 L150.059486,1.69306909 C149.357446,0.939349703 148.41342,0.455554768 147.391596,0.325827806 C147.110613,0.298749191 146.827678,0.298749191 146.546695,0.325827806 C144.822197,0.460125808 143.336003,1.59150943 142.747477,3.21802963 Z M88.4066846,12.554001 L88.4066846,64.579925 L96.7308324,64.579925 L96.7308324,12.554001 L88.4066846,12.554001 L88.4066846,12.554001 Z M63.4342411,18.7971119 L63.4342411,64.579925 L71.7583889,64.579925 L71.7583889,18.7971119 L63.4342411,18.7971119 L63.4342411,18.7971119 Z M125.86535,18.7971119 L125.86535,64.579925 L134.189498,64.579925 L134.189498,18.7971119 L125.86535,18.7971119 L125.86535,18.7971119 Z M75.9204628,22.9591858 L75.9204628,64.579925 L84.2446107,64.579925 L84.2446107,22.9591858 L75.9204628,22.9591858 L75.9204628,22.9591858 Z M113.379128,22.9591858 L113.379128,64.579925 L121.703276,64.579925 L121.703276,22.9591858 L113.379128,22.9591858 L113.379128,22.9591858 Z M100.892906,27.1212597 L100.892906,64.579925 L109.217054,64.579925 L109.217054,27.1212597 L100.892906,27.1212597 L100.892906,27.1212597 Z M50.9480193,43.7695554 L50.9480193,64.579925 L59.2721671,64.579925 L59.2721671,43.7695554 L50.9480193,43.7695554 L50.9480193,43.7695554 Z M46.7859454,68.7419989 L46.7859454,72.9040728 L138.351572,72.9040728 L138.351572,68.7419989 L46.7859454,68.7419989 L46.7859454,68.7419989 Z" id="Shape" fill="#EDBE26" sketch:type="MSShapeGroup"></path>
            <path d="M41.0630938,0.00118604018 C40.888505,0.013027725 40.7147772,0.0352648814 40.5428345,0.0677792229 C39.5537344,0.193675441 38.6366312,0.651493327 37.9415383,1.36634629 L1.26534295,38.1112159 C-0.421780982,39.8252351 -0.421780982,42.5757954 1.26534295,44.2898146 L37.9415383,80.96601 C39.0115569,82.2268866 40.6977578,82.7820347 42.3075429,82.4034301 C43.917328,82.0248254 45.179322,80.7762927 45.5751676,79.1706601 C45.9710131,77.5650275 45.433979,75.8729704 44.1846492,74.7894923 L10.6300093,41.2327713 L44.1846492,7.60945716 C45.5121452,6.35892558 45.9314983,4.41953858 45.2392408,2.7322762 C44.5469833,1.04501382 42.8863589,-0.0409907334 41.0630938,0.00118604018 L41.0630938,0.00118604018 Z M142.747477,3.21802963 C142.158951,4.84454984 142.577087,6.66497951 143.816375,7.87166782 L177.371015,41.4929009 L143.816375,75.0496219 C142.092387,76.7736094 142.092387,79.5687453 143.816375,81.2927328 C145.540362,83.0167202 148.335498,83.0167202 150.059486,81.2927328 L186.735681,44.5478632 C188.42144,42.8340949 188.42144,40.0851137 186.735681,38.3713455 L150.059486,1.69306909 C149.357446,0.939349703 148.41342,0.455554768 147.391596,0.325827806 C147.110613,0.298749191 146.827678,0.298749191 146.546695,0.325827806 C144.822197,0.460125808 143.336003,1.59150943 142.747477,3.21802963 Z M113.379128,22.9591858 L113.379128,64.579925 L121.703276,64.579925 L121.703276,22.9591858 L113.379128,22.9591858 L113.379128,22.9591858 Z" id="Shape" fill="#FFFFFF" sketch:type="MSShapeGroup"></path>
        </g>
    </g>
</svg>