<?xml version="1.0" encoding="utf-8"?>
<!-- Generator: Adobe Illustrator 19.1.0, SVG Export Plug-In . SVG Version: 6.00 Build 0)  -->
<svg version="1.1" id="Layer_1" xmlns:sketch="http://www.bohemiancoding.com/sketch/ns"
	 xmlns="http://www.w3.org/2000/svg" xmlns:xlink="http://www.w3.org/1999/xlink" x="0px" y="0px" viewBox="-401.3 248.7 64.6 64.4"
	 style="enable-background:new -401.3 248.7 64.6 64.4;" xml:space="preserve">
<style type="text/css">
	.st0{fill:#FFFFFF;}
</style>
<title>Slice 1</title>
<desc>Created with Sketch Beta.</desc>
<g id="Page-1" sketch:type="MSPage">
	<path id="Shape" sketch:type="MSShapeGroup" class="st0" d="M-390.7,259.6c-0.2,0-0.3,0-0.5,0c-5.5,0-10,4.5-10,10
		c0,3.3,1.6,6.3,4.2,8.1c-0.1,9.6,4.5,19.1,13.1,24.7c2.1,1.4,4.2,2.3,6.5,3.1c1.1,4.3,5,7.5,9.7,7.5c4.7,0,8.6-3.2,9.7-7.6
		c5.8-2,11-5.8,14.7-11.3l4,2.6l0.5-9.2l0.5-9.2l-8.2,4.2l-8.2,4.2l4.3,2.8c-2.4,3.5-5.6,6-9.2,7.5c-1.8-2.5-4.8-4.2-8.1-4.2
		c-3.3,0-6.3,1.7-8.2,4.2c-1.2-0.5-2.3-1-3.4-1.7c-5.7-3.8-9-9.8-9.4-16.2c4.3-1.1,7.6-5,7.6-9.7c0-2.2-0.7-4.2-1.9-5.9
		c6.8-7.4,18.1-9,26.8-3.3c0.1,0.1,0.1,0.1,0.2,0.2c-0.4,1-0.6,2.1-0.6,3.3c0,5.5,4.5,10,10,10c5.5,0,10-4.5,10-10
		c0-5.5-4.5-10-10-10c-1.3,0-2.5,0.2-3.6,0.7c-0.5-0.4-1-0.8-1.5-1.1c-5.1-3.3-10.8-4.9-16.5-4.8
		C-376.8,248.8-385.1,252.6-390.7,259.6z M-346.7,257.3c3.7,0,6.7,3,6.7,6.7c0,1.7-0.6,3.2-1.6,4.3c-0.4-0.4-0.8-0.6-1.2-0.7
		c-0.7-0.7-0.5-3.5-0.5-3.5c0,0,0-0.1,0-0.1c0,0,0.9-3-1.5-4.1c0,0-0.4-0.1-0.8,0c-0.2-0.1-0.4-0.1-0.7-0.1c-0.1,0-0.1,0-0.2,0
		c-0.1,0-0.1,0-0.2,0c-0.3,0-0.5,0-0.8,0.1l0,0c-0.8,0.3-2.1,1.3-1.9,3.3c0,0,0,0,0,0c-0.2,0.3-0.2,0.6-0.1,0.9
		c0,0.6,0.1,2.4-0.1,3.3c-0.1,0-0.1,0-0.2,0c-0.6,0.1-1.2,0.3-1.7,1.2c-1.2-1.2-2-2.9-2-4.8C-353.4,260.2-350.4,257.3-346.7,257.3
		L-346.7,257.3z M-344.9,262c0.1,0.3,0.4,0.9,0.8,1.4v0.6l0.1-0.4c0,0,0,0,0,0c0,0,0,0,0,0c0.1,0.1,0.2,0.1,0.2,0.2
		c0,0.1,0,0.2-0.1,0.4c-0.2,0.7-0.4,0.7-0.5,0.7c0,0,0,0.7-0.6,1.3v0c-0.5,0.5-0.9,0.7-1.4,0.7c-0.6,0-1-0.4-1.3-0.7
		c-0.6-0.7-0.6-1.4-0.6-1.4h0c0,0-0.1,0-0.2-0.1l-0.1-0.2c0-0.1-0.1-0.2-0.1-0.4c-0.1-0.4-0.1-0.5,0-0.6c0.1,0,0.3,0,0.4,0l0.2,0.9
		l0.2-0.9c0.2,0,0.3,0,0.5-0.1c0.7-0.2,1.4-0.5,1.8-0.9C-345.4,262.3-345.1,262.1-344.9,262L-344.9,262z M-391.2,263
		c3.7,0,6.7,3,6.7,6.7c0,1.9-0.8,3.7-2.1,4.9c-0.4-0.7-1-1-1.5-1.1c-0.7-0.7-0.5-3.5-0.5-3.5c0,0,0-0.1,0-0.2c0,0,0.9-3-1.5-4.1
		c0,0-0.4-0.1-0.8,0c-0.2-0.1-0.4-0.1-0.7-0.1c-0.1,0-0.1,0-0.2,0c-0.1,0-0.1,0-0.2,0c-0.3,0-0.5,0-0.8,0.1h0
		c-0.8,0.3-2.1,1.3-1.9,3.3c0,0,0,0,0,0c-0.2,0.3-0.2,0.6-0.1,0.9c0,0.6,0.1,2.4-0.1,3.3c-0.1,0-0.1,0-0.2,0
		c-0.4,0.1-0.9,0.2-1.3,0.6c-1-1.2-1.6-2.7-1.6-4.4C-397.9,265.9-395,263-391.2,263L-391.2,263z M-345,266.9c0,0.2,0,0.4,0,0.4
		c0.1,0.3,1.4,0.6,1.9,0.7c0.3,0.1,0.7,0.2,1,0.5c-1.4,0.5-2.7,0.7-3.9,0.8l-0.3,0.3l-0.3-0.3c-2.5,0-3.9-0.8-3.9-0.8
		c0.3-0.3,0.7-0.4,1-0.5c0.5-0.1,1.8-0.4,1.9-0.7c0-0.1,0-0.2,0-0.4c0.3,0.2,0.7,0.4,1.2,0.5c0,0,0.1,0,0.1,0
		C-345.9,267.4-345.4,267.2-345,266.9L-345,266.9z M-390.3,267.8c0.1,0.3,0.4,0.9,0.8,1.4v0.6l0.1-0.4c0,0,0,0,0,0c0,0,0,0,0,0
		c0.1,0.1,0.2,0.1,0.2,0.2c0,0.1,0,0.2,0,0.4c-0.2,0.7-0.4,0.7-0.5,0.7h0c-0.3,1-0.3,0.8-0.3,0.8l-0.3,0.5c-0.5,0.5-0.9,0.7-1.4,0.7
		c-0.6,0-1-0.4-1.3-0.7c0,0,0,0,0,0c-0.6-0.7-0.6-1.3-0.6-1.3h0c0,0-0.1,0-0.2-0.1l-0.1-0.2c0-0.1-0.1-0.2-0.1-0.4
		c-0.1-0.4,0-0.5,0-0.6c0.1,0,0.2,0,0.4,0l0.2,0.8l0.2-0.9c0.2,0,0.3,0,0.5-0.1c0.7-0.2,1.4-0.5,1.8-0.9
		C-390.8,268.2-390.5,267.9-390.3,267.8L-390.3,267.8z M-366.7,267.9l-3.5,19.7h1l3.5-19.7H-366.7L-366.7,267.9z M-371.7,271.9
		l-7.9,5.6v1.5l7.9,5.6v-1.9l-6.4-4.5l6.4-4.5V271.9L-371.7,271.9z M-364.6,271.9v1.8l6.4,4.5l-6.4,4.5v1.9l7.9-5.6v-1.5
		L-364.6,271.9L-364.6,271.9z M-390.4,272.8c0,0.2,0,0.4,0,0.4c0.1,0.3,1.4,0.6,1.9,0.7c0.3,0.1,0.7,0.2,1,0.5
		c-1.4,0.5-2.8,0.7-3.9,0.8l-0.3,0.3l-0.3-0.3c-2.5,0-3.9-0.8-3.9-0.8c0.3-0.3,0.7-0.4,1-0.5c0.5-0.1,1.8-0.4,1.9-0.7
		c0-0.1,0-0.2,0-0.4c0.3,0.2,0.7,0.4,1.2,0.5c0,0,0.1,0,0.1,0C-391.3,273.3-390.8,273.1-390.4,272.8L-390.4,272.8z M-367.9,296.4
		c3.7,0,6.7,3,6.7,6.7c0,1.9-0.8,3.7-2.1,4.9c-0.4-0.3-0.8-0.4-1.2-0.5c-0.6-0.1-1.3-0.3-1.5-0.4c0-0.1,0-0.4,0-0.7c0,0,0,0,0,0
		c0.3-0.5,0.5-0.9,0.6-1.2c0.2-0.2,0.4-0.5,0.6-1c0.1-0.3,0.2-0.8-0.1-1.1c0,0,0,0,0,0c0.2-2.1-1.1-3.2-2-3.5h0
		c-0.3-0.1-0.6-0.1-0.9-0.1h0c-0.1,0-0.1,0-0.2,0c-0.1,0-0.1,0-0.2,0c-0.3,0-0.6,0-0.9,0.1h0c-0.8,0.3-2.2,1.3-2,3.5c0,0,0,0,0,0
		c-0.2,0.3-0.2,0.7-0.1,1.1c0.1,0.6,0.4,0.9,0.6,1c0.1,0.3,0.2,0.7,0.6,1.1v0c0,0,0,0,0.1,0.1c0,0.4,0,0.6,0,0.7
		c-0.3,0.1-1,0.3-1.5,0.4c-0.3,0.1-0.7,0.2-1.1,0.4c-1.3-1.2-2-2.9-2-4.8C-374.5,299.4-371.6,296.4-367.9,296.4L-367.9,296.4z
		 M-369.2,301.8c0.9-1,3.2,1.5,2.5,1.4c0,0-0.3-0.5-0.6-1.1c0,0,0.8,0.9,1.5,1.1c0,0,0.1-0.1,0.2-0.4c0,0.1,0,0.2,0,0.4
		c0,0,0,0,0.1,0c0.1,0,0.2,0.1,0.1,0.7c-0.2,0.7-0.4,0.8-0.5,0.8c0,0-0.1,0.7-0.7,1.4v0c-0.5,0.5-1,0.7-1.5,0.7
		c-0.6,0-1.1-0.4-1.3-0.7c-0.6-0.7-0.7-1.4-0.7-1.4h0c-0.1,0-0.3,0-0.5-0.8c-0.1-0.6,0-0.7,0.1-0.7c0,0,0.1,0,0.1,0l0.2,0.7
		C-369.7,302.6-370,303.2-369.2,301.8L-369.2,301.8z M-366.6,306.8c0,0.2,0,0.4,0,0.5c0.1,0.1,0.4,0.3,0.7,0.4
		c-0.5,0.5-1.3,0.9-2.2,0.9s-1.6-0.3-2.2-0.9c0.4-0.1,0.7-0.3,0.7-0.4c0-0.1,0-0.3,0-0.4c0.3,0.2,0.8,0.5,1.3,0.5c0,0,0.1,0,0.1,0
		C-367.5,307.3-367,307.1-366.6,306.8L-366.6,306.8z"/>
</g>
</svg>
