<?xml version="1.0" encoding="UTF-8" standalone="no"?>
<svg width="128px" height="126px" viewBox="0 0 128 126" version="1.1" xmlns="http://www.w3.org/2000/svg" xmlns:xlink="http://www.w3.org/1999/xlink" xmlns:sketch="http://www.bohemiancoding.com/sketch/ns">
    <!-- Generator: Sketch Beta 3.4 (15575) - http://www.bohemiancoding.com/sketch -->
    <title>Slice 1</title>
    <desc>Created with Sketch Beta.</desc>
    <defs></defs>
    <g id="Page-1" stroke="none" stroke-width="1" fill="none" fill-rule="evenodd" sketch:type="MSPage">
        <g id="Group" sketch:type="MSLayerGroup">
            <path d="M124.992758,2.7498427 C131.119527,8.92692135 124.815692,40.2926742 101.726582,63.3628764 C95.2298462,69.8491685 88.1025824,74.9921798 81.0674505,78.8897079 L80.0813516,79.3873258 L81.3164945,93.0186067 L63.011044,111.308225 L61.0690769,89.8948315 L50.8525165,95.7900225 L50.2709341,96.3681798 L50.1154615,96.2142921 L31.9122198,78.0253483 L31.7567473,77.8714607 L32.3368901,77.2961798 L38.2362088,67.0849438 L16.8069121,65.1419326 L35.1123626,46.8537528 L48.6744615,48.0819775 L49.2977912,46.8753258 C53.2666593,39.8914157 58.4605934,32.7953258 64.953011,26.3075955 C88.045,3.23883146 118.86311,-3.42435955 124.992758,2.7498427 L124.992758,2.7498427 Z M103.60089,24.5932584 C99.5542857,20.5519101 92.9956484,20.5519101 88.9504835,24.5932584 C84.9038791,28.6360449 84.9038791,35.1884944 88.9504835,39.2298427 C92.9956484,43.2726292 99.5542857,43.2726292 103.60089,39.2298427 C107.643176,35.1884944 107.643176,28.6360449 103.60089,24.5932584 L103.60089,24.5932584 Z" id="Shape" fill="#FFFFFF" sketch:type="MSShapeGroup"></path>
            <path d="M15.5918246,94.0438965 C10.4338421,99.1970126 7.21498399,104.336043 8.40230377,105.522243 C9.58962356,106.708442 14.7335074,103.492621 19.8914899,98.3395052 C25.0494724,93.1863891 28.2683305,88.0473584 27.0810108,86.8611588 C25.893691,85.6749593 20.7498071,88.8907805 15.5918246,94.0438965 L15.5918246,94.0438965 Z" id="Oval" fill="#EDBE26" sketch:type="MSShapeGroup"></path>
            <path d="M27.9162381,106.360825 C22.7576934,111.514503 19.5379238,116.653533 20.7246814,117.839171 C21.911439,119.024809 27.0553229,115.808077 32.2138676,110.6544 C37.3724123,105.500722 40.5921819,100.361691 39.4054242,99.1760532 C38.2186666,97.9904153 33.0747828,101.207147 27.9162381,106.360825 L27.9162381,106.360825 Z" id="Oval" fill="#EDBE26" sketch:type="MSShapeGroup"></path>
            <path d="M14.8556606,107.365889 C5.77873571,116.43425 -0.651233035,124.713066 0.493923408,125.857142 C1.63907985,127.001218 9.92571403,120.577316 19.0026389,111.508955 C28.0795637,102.440594 34.5095325,94.1617777 33.364376,93.0177017 C32.2192196,91.8736257 23.9325854,98.2975279 14.8556606,107.365889 L14.8556606,107.365889 Z" id="Oval" fill="#EDBE26" sketch:type="MSShapeGroup"></path>
        </g>
    </g>
</svg>