<?xml version="1.0" encoding="UTF-8" standalone="no"?>
<svg width="112px" height="115px" viewBox="0 0 112 115" version="1.1" xmlns="http://www.w3.org/2000/svg" xmlns:xlink="http://www.w3.org/1999/xlink" xmlns:sketch="http://www.bohemiancoding.com/sketch/ns">
    <!-- Generator: Sketch Beta 3.4 (15575) - http://www.bohemiancoding.com/sketch -->
    <title>Slice 1</title>
    <desc>Created with Sketch Beta.</desc>
    <defs></defs>
    <g id="Page-1" stroke="none" stroke-width="1" fill="none" fill-rule="evenodd" sketch:type="MSPage">
        <g id="Group" sketch:type="MSLayerGroup">
            <path d="M39.6831628,88.4271591 L15.7216744,88.4271591 L26.4710698,67.9963636 L13.671814,61.0427841 L2.76483721,81.5153977 C-0.339906977,87.48625 -0.638139535,92.8023864 1.87274419,96.959375 C4.47739535,101.273182 9.39888372,102.981193 12.8213953,102.981193 L39.6831628,102.981193 L39.6831628,114.784375 L69.6587907,95.4107955 L39.6831628,76.0346023 L39.6831628,88.4271591 L39.6831628,88.4271591 Z" id="Shape" fill="#EDBE26" sketch:type="MSShapeGroup"></path>
            <path d="M109.628465,82.4955114 L96.6442791,58.5271591 L106.057488,53.3926705 L77.1471628,37.5226705 L74.700093,70.4976136 L83.8984186,65.6846023 L96.1090233,88.4258523 L74.1309767,88.4258523 L74.1309767,102.981193 L96.2197209,102.981193 C103.145488,102.981193 107.898977,100.560966 110.34214,96.1948864 C113.60186,90.3677841 110.554419,84.0911364 109.628465,82.4955114 L109.628465,82.4955114 Z" id="Shape" fill="#FFFFFF" sketch:type="MSShapeGroup"></path>
            <path d="M22.5367442,59.7425 L50.1616744,44.0515341 L41.4699535,39.47375 L53.4682791,16.5508523 L68.5700465,37.6755682 L80.3547907,29.1903977 L65.3910698,8.265625 C61.5570233,2.56136364 57.1017674,-0.134602273 52.1633488,0.253522727 C45.5227907,0.771022727 42.1901395,6.684375 41.3826977,8.34534091 L28.6290233,32.7122727 L19.7250233,28.0194886 L22.5367442,59.7425 L22.5367442,59.7425 Z" id="Shape" fill="#EDBE26" sketch:type="MSShapeGroup"></path>
        </g>
    </g>
</svg>