<?xml version="1.0" encoding="UTF-8" standalone="no"?>
<svg width="114px" height="109px" viewBox="0 0 114 109" version="1.1" xmlns="http://www.w3.org/2000/svg" xmlns:xlink="http://www.w3.org/1999/xlink" xmlns:sketch="http://www.bohemiancoding.com/sketch/ns">
    <!-- Generator: Sketch Beta 3.4 (15138) - http://www.bohemiancoding.com/sketch -->
    <title>Slice 1</title>
    <desc>Created with Sketch Beta.</desc>
    <defs></defs>
    <g id="Page-1" stroke="none" stroke-width="1" fill="none" fill-rule="evenodd" sketch:type="MSPage">
        <g id="Group" sketch:type="MSLayerGroup">
            <path d="M10.26798,68.4644896 L10.26798,51.6501042 L3.19656,51.6501042 L3.19656,55.2618646 L5.95764,55.2618646 L5.95764,68.4644896 L10.26798,68.4644896 Z" id="Shape" fill="#EDBF27" sketch:type="MSShapeGroup"></path>
            <path d="M31.58598,55.2618646 L34.34592,55.2618646 L34.34592,68.4644896 L38.6574,68.4644896 L38.6574,51.6501042 L31.58598,51.6501042 L31.58598,55.2618646 Z" id="Shape" fill="#EDBF27" sketch:type="MSShapeGroup"></path>
            <path d="M18.43494,75.2860729 L21.19488,75.2860729 L21.19488,88.4864271 L25.50636,88.4864271 L25.50636,71.6709062 L18.43494,71.6709062 L18.43494,75.2860729 Z" id="Shape" fill="#EDBF27" sketch:type="MSShapeGroup"></path>
            <path d="M18.43494,94.8686042 L21.19488,94.8686042 L21.19488,108.068958 L25.50636,108.068958 L25.50636,91.2534375 L18.43494,91.2534375 L18.43494,94.8686042 Z" id="Shape" fill="#EDBF27" sketch:type="MSShapeGroup"></path>
            <path d="M31.58598,75.2860729 L34.34592,75.2860729 L34.34592,88.4864271 L38.6574,88.4864271 L38.6574,71.6709062 L31.58598,71.6709062 L31.58598,75.2860729 Z" id="Shape" fill="#EDBF27" sketch:type="MSShapeGroup"></path>
            <path d="M24.61716,51.8749167 C23.81802,51.5342917 22.90716,51.3299167 22.03848,51.3299167 C21.17208,51.3299167 20.30568,51.5127187 19.48374,51.8317708 C16.929,52.8525104 15.67386,55.0098021 15.67386,57.7155 L15.67386,62.3945521 C15.67386,65.0775417 16.9518,67.2132604 19.46094,68.2578437 C20.28174,68.6007396 21.14814,68.7801354 22.03848,68.7801354 C22.99722,68.7801354 23.95482,68.5734896 24.82122,68.1681458 C27.1947,67.0781458 28.2663,64.9174479 28.2663,62.3945521 L28.2663,57.7155 C28.2663,55.0801979 27.0807,52.9444792 24.61716,51.8749167 L24.61716,51.8749167 Z M23.95482,62.5115 C23.95482,63.8274479 23.52162,65.0071458 21.97008,65.0071458 C20.48694,65.0071458 19.98534,63.8036042 19.98534,62.5115 L19.98534,57.6030937 C19.98534,56.3291562 20.48694,55.1029062 21.97008,55.1029062 C23.52162,55.1029062 23.95482,56.2837396 23.95482,57.6030937 L23.95482,62.5115 L23.95482,62.5115 Z" id="Shape" fill="#EDBF27" sketch:type="MSShapeGroup"></path>
            <path d="M102.43356,75.2860729 L105.19578,75.2860729 L105.19578,88.4864271 L109.50726,88.4864271 L109.50726,71.6709062 L102.43356,71.6709062 L102.43356,75.2860729 Z" id="Shape" fill="#EDBF27" sketch:type="MSShapeGroup"></path>
            <path d="M102.43356,94.8686042 L105.19578,94.8686042 L105.19578,108.068958 L109.50726,108.068958 L109.50726,91.2534375 L102.43356,91.2534375 L102.43356,94.8686042 Z" id="Shape" fill="#EDBF27" sketch:type="MSShapeGroup"></path>
            <path d="M108.61692,51.8749167 C107.81892,51.5342917 106.90578,51.3299167 106.03938,51.3299167 C105.17298,51.3299167 104.30544,51.5127187 103.4835,51.8317708 C100.92876,52.8525104 99.67476,55.0098021 99.67476,57.7155 L99.67476,62.3945521 C99.67476,65.0775417 100.9527,67.2132604 103.46184,68.2578437 C104.28264,68.6007396 105.1479,68.7801354 106.03938,68.7801354 C106.99698,68.7801354 107.95458,68.5734896 108.82212,68.1681458 C111.1956,67.0781458 112.26606,64.9174479 112.26606,62.3945521 L112.26606,57.7155 C112.26606,55.0801979 111.07932,52.9444792 108.61692,51.8749167 L108.61692,51.8749167 Z M107.95458,62.5115 C107.95458,63.8274479 107.52138,65.0071458 105.96984,65.0071458 C104.4867,65.0071458 103.98738,63.8036042 103.98738,62.5115 L103.98738,57.6030937 C103.98738,56.3291562 104.4867,55.1029062 105.96984,55.1029062 C107.52138,55.1029062 107.95458,56.2837396 107.95458,57.6030937 L107.95458,62.5115 L107.95458,62.5115 Z" id="Shape" fill="#EDBF27" sketch:type="MSShapeGroup"></path>
            <path d="M83.51868,88.4864271 L83.51868,71.6709062 L76.4484,71.6709062 L76.4484,75.2860729 L79.2072,75.2860729 L79.2072,88.4864271 L83.51868,88.4864271 Z" id="Shape" fill="#EDBF27" sketch:type="MSShapeGroup"></path>
            <path d="M89.5983,75.2860729 L92.35824,75.2860729 L92.35824,88.4864271 L96.67086,88.4864271 L96.67086,71.6709062 L89.5983,71.6709062 L89.5983,75.2860729 Z" id="Shape" fill="#EDBF27" sketch:type="MSShapeGroup"></path>
            <path d="M82.62948,91.4816563 C81.83034,91.1433021 80.91948,90.9377917 80.05194,90.9377917 C79.18326,90.9377917 78.31686,91.1183229 77.4972,91.437375 C74.94246,92.45925 73.68504,94.6176771 73.68504,97.3199688 L73.68504,102.002427 C73.68504,104.68201 74.96412,106.821135 77.47326,107.865719 C78.29292,108.205208 79.16046,108.38801 80.05194,108.38801 C81.01068,108.38801 81.96714,108.181365 82.8324,107.772615 C85.20588,106.682615 86.27748,104.525323 86.27748,102.002427 L86.27748,97.3199688 C86.27976,94.6858021 85.09416,92.5534896 82.62948,91.4816563 L82.62948,91.4816563 Z M81.96714,102.115969 C81.96714,103.435323 81.53508,104.615021 79.9824,104.615021 C78.5004,104.615021 77.99994,103.411479 77.99994,102.115969 L77.99994,97.2109688 C77.99994,95.9370313 78.5004,94.7085104 79.9824,94.7085104 C81.53508,94.7085104 81.96714,95.89275 81.96714,97.2109688 L81.96714,102.115969 L81.96714,102.115969 Z" id="Shape" fill="#EDBF27" sketch:type="MSShapeGroup"></path>
            <path d="M9.37992,71.899125 C8.58078,71.5573646 7.66878,71.3552604 6.8001,71.3552604 C5.9337,71.3552604 5.0673,71.5346562 4.24764,71.8537083 C1.69176,72.8755833 0.43662,75.0340104 0.43662,77.7408437 L0.43662,82.4198958 C0.43662,85.0994792 1.71456,87.2351979 4.2237,88.2831875 C5.04564,88.6215417 5.91204,88.8020729 6.8001,88.8020729 C7.75998,88.8020729 8.71758,88.5988333 9.58284,88.1900833 C11.95632,87.0989479 13.02792,84.9427917 13.02792,82.4198958 L13.02792,77.7408437 C13.02906,75.1021354 11.84232,72.9675521 9.37992,71.899125 L9.37992,71.899125 Z M8.71644,82.5323021 C8.71644,83.8516562 8.28324,85.0313542 6.7317,85.0313542 C5.2497,85.0313542 4.7481,83.8255417 4.7481,82.5323021 L4.7481,77.6238958 C4.7481,76.3533646 5.2497,75.12825 6.7317,75.12825 C8.28324,75.12825 8.71644,76.3079479 8.71644,77.6238958 L8.71644,82.5323021 L8.71644,82.5323021 Z" id="Shape" fill="#EDBF27" sketch:type="MSShapeGroup"></path>
            <path d="M52.91652,68.4644896 L52.91652,51.6501042 L45.8451,51.6501042 L45.8451,55.2618646 L48.60618,55.2618646 L48.60618,68.4644896 L52.91652,68.4644896 Z" id="Shape" fill="#EDBF27" sketch:type="MSShapeGroup"></path>
            <path d="M61.08348,75.2860729 L63.84456,75.2860729 L63.84456,88.4864271 L68.1549,88.4864271 L68.1549,71.6709062 L61.08348,71.6709062 L61.08348,75.2860729 Z" id="Shape" fill="#EDBF27" sketch:type="MSShapeGroup"></path>
            <path d="M61.08348,94.8686042 L63.84456,94.8686042 L63.84456,108.068958 L68.1549,108.068958 L68.1549,91.2534375 L61.08348,91.2534375 L61.08348,94.8686042 Z" id="Shape" fill="#EDBF27" sketch:type="MSShapeGroup"></path>
            <path d="M52.02846,71.899125 C51.22818,71.5573646 50.31732,71.3552604 49.44864,71.3552604 C48.58224,71.3552604 47.71584,71.5346562 46.89504,71.8537083 C44.33916,72.8755833 43.08516,75.0340104 43.08516,77.7408437 L43.08516,82.4198958 C43.08516,85.0994792 44.3631,87.2351979 46.87224,88.2831875 C47.69418,88.6215417 48.56058,88.8020729 49.44864,88.8020729 C50.40852,88.8020729 51.36612,88.5988333 52.23138,88.1900833 C54.60486,87.0989479 55.67646,84.9427917 55.67646,82.4198958 L55.67646,77.7408437 C55.6776,75.1021354 54.49086,72.9675521 52.02846,71.899125 L52.02846,71.899125 Z M51.36612,82.5323021 C51.36612,83.8516562 50.93292,85.0313542 49.38138,85.0313542 C47.89938,85.0313542 47.39778,83.8255417 47.39778,82.5323021 L47.39778,77.6238958 C47.39778,76.3533646 47.89938,75.12825 49.38138,75.12825 C50.93292,75.12825 51.36612,76.3079479 51.36612,77.6238958 L51.36612,82.5323021 L51.36612,82.5323021 Z" id="Shape" fill="#EDBF27" sketch:type="MSShapeGroup"></path>
            <path d="M94.4946,48.5481458 L107.7585,48.5719896 L108.243,48.0871667 C111.53418,44.676375 113.56452,40.0495521 113.56452,34.9583437 C113.56452,25.6081875 106.7325,17.8203646 97.78464,16.2750625 C96.14418,7.38361458 88.34544,0.611989583 78.98034,0.611989583 C70.15788,0.611989583 62.72166,6.62061458 60.5682,14.7445208 C57.30096,12.1239792 53.15478,10.5502917 48.64494,10.5502917 C39.16128,10.5502917 31.2759,17.4922292 29.83608,26.5426354 C26.85384,24.6090208 23.29818,23.4804167 19.48146,23.4804167 C8.98092,23.4804167 0.43662,31.9903646 0.43662,42.4475521 C0.43662,44.5071979 0.77178,46.4919062 1.3851,48.3483125 L7.98798,48.3801042 L30.95214,48.4255208 L37.54704,48.4380104 L46.57812,48.4573125 L47.61666,48.4584479 C47.95638,48.4766146 48.30066,48.4856979 48.64494,48.4856979 L50.70948,48.4629896 C50.72544,48.4595833 57.72618,48.4743437 57.72618,48.4743437 C58.36344,50.1013958 59.22642,51.6126354 60.2661,52.987625 C58.97334,54.1468854 58.32354,55.7875625 58.32354,57.7155 L58.32354,62.3945521 C58.32354,65.0775417 59.60148,67.2132604 62.11062,68.2578437 C62.93142,68.6007396 63.79668,68.7801354 64.68816,68.7801354 C65.6469,68.7801354 66.60564,68.5734896 67.4709,68.1681458 C69.84324,67.0781458 70.91484,64.9174479 70.91484,62.3945521 L70.91484,60.0238021 C71.81544,60.2452083 72.74112,60.3984896 73.68618,60.4870521 L73.68618,62.3945521 C73.68618,65.0775417 74.96526,67.2132604 77.4744,68.2578437 C78.29406,68.6007396 79.1616,68.7801354 80.05308,68.7801354 C81.01182,68.7801354 81.96828,68.5734896 82.83354,68.1681458 C85.20702,67.0781458 86.27862,64.9174479 86.27862,62.3945521 L86.27862,57.2193229 C87.1302,56.6323125 87.92592,55.9737708 88.67034,55.2607292 L92.3571,55.2607292 L92.3571,68.4633542 L96.66972,68.4633542 L96.66972,51.6501042 L91.60698,51.6501042 C92.22372,50.6691042 92.76522,49.6370104 93.19614,48.5470104 L94.4946,48.5481458 Z M34.73694,42.5077292 L32.433,42.5043229 L6.53106,42.4532292 L6.53106,42.4452812 C6.53106,35.3318958 12.34164,29.5446771 19.4826,29.5446771 C24.37662,29.5446771 28.64364,32.2651354 30.84498,36.2618021 C30.83472,36.2334167 30.82446,36.2038958 30.81534,36.1732396 C31.71138,38.5462604 33.07368,40.6944687 34.79052,42.5088646 L34.73694,42.5088646 L34.73694,42.5077292 Z M66.6045,62.5115 C66.6045,63.8274479 66.17016,65.0071458 64.61976,65.0071458 C63.13662,65.0071458 62.63502,63.8036042 62.63502,62.5115 L62.63502,57.6030938 C62.63502,56.9945104 62.75358,56.4006875 63.0363,55.9419792 C64.12614,56.8821042 65.322,57.701875 66.60564,58.3785833 L66.60564,62.5115 L66.6045,62.5115 Z M81.96714,62.5115 C81.96714,63.8274479 81.53508,65.0071458 79.9824,65.0071458 C78.5004,65.0071458 77.99994,63.8036042 77.99994,62.5115 L77.99994,60.4018958 C79.37478,60.2202292 80.70174,59.8898229 81.96714,59.4311146 L81.96714,62.5115 L81.96714,62.5115 Z M75.47712,54.5056771 C68.65422,54.5056771 63.05568,49.2293958 62.5632,42.5599583 C62.5632,42.5599583 62.5632,42.5599583 62.5632,42.5565521 C62.55978,42.5327083 62.55636,42.5111354 62.55636,42.4872917 L56.4528,42.4748021 C56.45394,42.4975104 56.45622,42.5224896 56.4585,42.5474687 L47.97576,42.5281667 C41.14374,42.1739167 35.6934,36.4014583 35.6934,29.51175 C35.69454,22.4051771 41.50398,16.6202292 48.64722,16.6202292 C55.78932,16.6202292 61.59876,22.4040417 61.59876,29.5185625 L67.69206,29.5185625 C67.69206,29.1643125 67.67838,28.8134687 67.66128,28.4660312 C67.65558,28.3661146 67.64304,28.2639271 67.63734,28.1662812 C67.6191,27.9130833 67.59972,27.6598854 67.57008,27.4089583 C67.55868,27.3147187 67.54614,27.2238854 67.53474,27.1319167 C67.4994,26.8560104 67.46178,26.5835104 67.41504,26.3132812 C67.40706,26.2655937 67.39908,26.2190417 67.39224,26.1724896 C67.21782,25.2266875 66.97956,24.3024583 66.67176,23.4066146 L66.0345,19.5779896 C66.0345,12.4646042 71.8428,6.67738542 78.9849,6.67738542 C85.00638,6.67738542 90.0771,10.791 91.5249,16.3443229 C91.542,16.3409167 91.56138,16.3386458 91.5819,16.336375 C91.8327,17.3321354 91.96722,18.3778542 91.96722,19.4530937 C91.96722,20.4590729 91.84752,21.4412083 91.62522,22.3813333 C92.55432,22.1712812 93.52674,22.0543333 94.5231,22.0543333 C95.65968,22.0543333 96.76434,22.2019375 97.81428,22.4789792 C103.36722,23.9334479 107.4735,28.9746979 107.4735,34.9538021 C107.4735,37.8309479 106.5216,40.4912292 104.91534,42.6405729 L88.37166,42.6201354 C88.37622,42.632625 88.38534,42.6451146 88.38876,42.6576042 C88.28388,44.06325 87.95784,45.3144792 87.43458,46.5600312 C85.48062,51.2186458 80.85564,54.5056771 75.47712,54.5056771 L75.47712,54.5056771 Z" id="Shape" fill="#FFFFFF" sketch:type="MSShapeGroup"></path>
            <path d="M89.43356,55.2860729 L92.19578,55.2860729 L92.19578,68.4864271 L96.50726,68.4864271 L96.50726,51.6709062 L89.43356,51.6709062 L89.43356,55.2860729 Z" id="Shape" fill="#EDBF27" sketch:type="MSShapeGroup"></path>
        </g>
    </g>
</svg>