<?xml version="1.0" encoding="UTF-8" standalone="no"?>
<svg width="82px" height="60px" viewBox="0 0 82 60" version="1.1" xmlns="http://www.w3.org/2000/svg" xmlns:xlink="http://www.w3.org/1999/xlink" xmlns:sketch="http://www.bohemiancoding.com/sketch/ns">
    <!-- Generator: Sketch Beta 3.4 (15575) - http://www.bohemiancoding.com/sketch -->
    <title>icon_beta</title>
    <desc>Created with Sketch Beta.</desc>
    <defs></defs>
    <g id="Page-1" stroke="none" stroke-width="1" fill="none" fill-rule="evenodd" sketch:type="MSPage">
        <g id="icon_beta" sketch:type="MSLayerGroup">
            <g id="Page-1" sketch:type="MSShapeGroup">
                <g id="Rectangle-187-+-BETA-">
                    <path d="M4.00000005e-07,36.981512 L50.781963,0.708681 L81.166016,0.708681 L4.00000005e-07,59.981512 L4.00000005e-07,36.981512 L4.00000005e-07,36.981512 Z" id="Rectangle-187" fill="#A5A5A5" transform="translate(40.583008, 30.345097) scale(-1, 1) translate(-40.583008, -30.345097) "></path>
                    <g id="BETA-" transform="translate(48.627316, 25.678011) rotate(36.000000) translate(-48.627316, -25.678011) translate(31.627316, 20.178011)" fill="#000000">
                        <path d="M0.670027248,0.196842381 L3.78037881,0.196842381 C5.19770361,0.196842381 6.22650191,0.39850052 6.86680459,0.801822849 C7.50710727,1.20514518 7.82725381,1.84657757 7.82725381,2.72613926 C7.82725381,3.32314745 7.68711849,3.8130514 7.40684365,4.19586582 C7.12656882,4.57868023 6.75401395,4.80882116 6.28916787,4.88629551 L6.28916787,4.95465488 C6.92263458,5.09593163 7.3794985,5.3602519 7.65977334,5.74762363 C7.94004818,6.13499536 8.0801835,6.64996417 8.0801835,7.29254551 C8.0801835,8.2040084 7.75092247,8.91493879 7.09239053,9.42535801 C6.43385859,9.93577722 5.53949904,10.190983 4.40928506,10.190983 L0.670027248,10.190983 L0.670027248,0.196842381 Z M2.78916787,4.15485019 L4.01963662,4.15485019 C4.59385824,4.15485019 5.00970695,4.06598389 5.26719522,3.88824863 C5.52468348,3.71051337 5.65342569,3.41657099 5.65342569,3.00641269 C5.65342569,2.62359828 5.51329037,2.3490242 5.23301553,2.18268222 C4.95274069,2.01634025 4.50954851,1.93317051 3.90342569,1.93317051 L2.78916787,1.93317051 L2.78916787,4.15485019 Z M2.78916787,5.83649082 L2.78916787,8.44098301 L4.17002725,8.44098301 C4.7533635,8.44098301 5.18402325,8.32933048 5.46201944,8.10602207 C5.74001562,7.88271366 5.87901162,7.5409202 5.87901162,7.08063144 C5.87901162,6.25120021 5.28656963,5.83649082 4.10166787,5.83649082 L2.78916787,5.83649082 Z M15.8321366,10.190983 L10.0762772,10.190983 L10.0762772,0.196842381 L15.8321366,0.196842381 L15.8321366,1.93317051 L12.1954179,1.93317051 L12.1954179,4.12750644 L15.5792069,4.12750644 L15.5792069,5.86383457 L12.1954179,5.86383457 L12.1954179,8.44098301 L15.8321366,8.44098301 L15.8321366,10.190983 Z M21.7725663,10.190983 L19.6534257,10.190983 L19.6534257,1.96051426 L16.9395585,1.96051426 L16.9395585,0.196842381 L24.4864335,0.196842381 L24.4864335,1.96051426 L21.7725663,1.96051426 L21.7725663,10.190983 Z M31.1651444,10.190983 L30.4405351,7.81207676 L26.7969804,7.81207676 L26.072371,10.190983 L23.7891679,10.190983 L27.3165116,0.155826756 L29.9073319,0.155826756 L33.4483476,10.190983 L31.1651444,10.190983 Z M29.9346757,6.03473301 C29.2647505,3.87912327 28.8876383,2.66005994 28.803328,2.37750644 C28.7190177,2.09495295 28.6586342,1.87164789 28.6221757,1.70758457 C28.4717843,2.29092082 28.0411246,3.73328921 27.3301835,6.03473301 L29.9346757,6.03473301 Z" id="BETA"></path>
                    </g>
                </g>
            </g>
        </g>
    </g>
</svg>