<?xml version="1.0" encoding="UTF-8" standalone="no"?>
<svg width="52px" height="46px" viewBox="0 0 52 46" version="1.1" xmlns="http://www.w3.org/2000/svg" xmlns:xlink="http://www.w3.org/1999/xlink" xmlns:sketch="http://www.bohemiancoding.com/sketch/ns">
    <!-- Generator: Sketch Beta 3.4 (15575) - http://www.bohemiancoding.com/sketch -->
    <title>Slice 1</title>
    <desc>Created with Sketch Beta.</desc>
    <defs></defs>
    <g id="Page-1" stroke="none" stroke-width="1" fill="none" fill-rule="evenodd" sketch:type="MSPage">
        <rect id="Rectangle-104" fill="#EDBE26" sketch:type="MSShapeGroup" x="0" y="0" width="52" height="46"></rect>
        <path d="M25.5907324,8 C18.523857,8 12.7937599,13.8191252 12.7937599,21 C12.7937599,28.1795177 18.523857,34 25.5907324,34 C32.6576079,34 38.387705,28.1795177 38.387705,20.9997286 C38.387705,13.8191252 32.6576079,8 25.5907324,8 L25.5907324,8 Z M25.5926324,28.8949995 C25.456376,28.8971709 25.2954198,28.7978286 25.0549354,28.5622299 C23.8047422,27.3424366 20.3101186,22.0515085 20.3101186,21.1837561 L20.3407899,21.0518426 C20.4040324,20.9267147 20.5742171,20.7958868 21.8556244,20.7036016 C22.3523359,20.6666875 23.0917033,20.6403591 23.9295987,20.6267878 L23.9295987,14.7962627 C23.9295987,13.8622821 24.6928517,13.103372 25.6338893,13.103372 C26.5760127,13.103372 27.3389943,13.8622821 27.3389943,14.7962627 L27.3389943,20.6466019 C29.1363844,20.6957302 30.6715759,20.8143439 30.8281894,21.031757 L30.8710749,21.1802276 C30.8713463,21.9472805 26.4253707,28.8808853 25.5926324,28.8949995 L25.5926324,28.8949995 Z" id="Shape" fill="#FFFFFF" sketch:type="MSShapeGroup"></path>
    </g>
</svg>