<?xml version="1.0" encoding="UTF-8" standalone="no"?>
<svg width="133px" height="115px" viewBox="0 0 133 115" version="1.1" xmlns="http://www.w3.org/2000/svg" xmlns:xlink="http://www.w3.org/1999/xlink" xmlns:sketch="http://www.bohemiancoding.com/sketch/ns">
    <!-- Generator: Sketch Beta 3.4 (15138) - http://www.bohemiancoding.com/sketch -->
    <title>Slice 1</title>
    <desc>Created with Sketch Beta.</desc>
    <defs></defs>
    <g id="Page-1" stroke="none" stroke-width="1" fill="none" fill-rule="evenodd" sketch:type="MSPage">
        <g id="Group-+-Group" sketch:type="MSLayerGroup">
            <g id="Group" sketch:type="MSShapeGroup">
                <path d="M27.6521739,55.2701299 L40.0956522,55.2701299 L40.0956522,53.1896104 L29.2652174,53.1896104 L27.6521739,55.2701299 Z" id="Shape"></path>
                <path d="M40.0956522,60.3558442 L23.85,60.3558442 L23.5043478,60.8181818 L23.5043478,61.2805195 L40.0956522,61.2805195 L40.0956522,60.3558442 Z" id="Shape"></path>
                <path d="M47.5551751,36.3749825 C47.455531,36.3749825 47.455531,36.474944 47.3558869,36.5749055 C46.7580223,36.7748285 46.3594459,37.1746746 45.9608696,37.6744821 C45.7615814,38.0743282 45.4626491,38.4741742 45.2633609,38.7740587 C43.0711908,42.0727885 39.9822239,44.6717878 36.3950366,46.2711719 C35.3985956,46.671018 34.8007311,47.6706331 34.8007311,48.7702097 L34.8007311,51.968978 L28.8220854,51.968978 L20.5516256,51.968978 L20.5516256,48.7702097 C20.5516256,47.6706331 19.9537611,46.7709795 18.9573201,46.2711719 C11.2847249,42.8724806 6.3025202,35.1754444 6.3025202,26.7786776 C6.3025202,14.9832195 15.8683532,5.38691454 27.6263563,5.38691454 C37.889698,5.38691454 46.7580223,12.7840662 48.551616,22.8801787 C48.6512601,23.5799093 49.0498365,24.1796783 49.5480569,24.5795244 C50.1459215,24.9793704 50.8434302,25.2792549 51.6405829,25.0793319 C53.1352443,24.7794474 54.0320412,23.3799863 53.832753,21.9805251 C51.5409388,9.28541341 40.4804444,0.0889545335 27.6263563,0.0889545335 C12.8790304,0.0889545335 0.92173913,12.0843357 0.92173913,26.8786391 C0.92173913,36.7748285 6.40216429,45.8713259 15.0712005,50.4695553 L15.0712005,66.4633969 C15.0712005,67.3630504 15.5694209,68.262704 16.2669296,68.7625116 C18.2598115,73.0608565 22.5445075,75.9597403 27.6263563,75.9597403 C32.608561,75.9597403 36.893257,72.960895 38.985783,68.7625116 C39.6832917,68.262704 40.1815121,67.463012 40.1815121,66.4633969 L40.1815121,59.6660142 L40.1815121,50.4695553 C41.9751058,49.4699402 43.6690554,48.3703636 45.1637168,46.9709025 C46.8576664,45.4714799 48.4519719,43.7721342 49.7473451,41.772904 C49.8469892,41.572981 47.5551751,36.3749825 47.5551751,36.3749825 Z M20.4519815,63.2646286 L20.4519815,62.8647825 L20.4519815,62.4649365 L20.7509138,62.4649365 L34.701087,62.4649365 L34.701087,63.3645901 C34.701087,63.6644746 34.6014429,63.9643591 34.6014429,64.2642436 L20.5516256,64.2642436 C20.5516256,63.9643591 20.4519815,63.6644746 20.4519815,63.2646286 L20.4519815,63.2646286 Z M34.8007311,58.0666301 L24.0391689,58.0666301 L20.4519815,58.0666301 L20.4519815,56.2673229 L25.4341862,56.2673229 L34.701087,56.2673229 L34.701087,58.0666301 L34.8007311,58.0666301 Z M32.4092728,68.5625886 C31.1138996,69.7621267 29.41995,70.4618572 27.6263563,70.4618572 C25.7331185,70.4618572 24.138813,69.7621267 22.8434398,68.5625886 L32.4092728,68.5625886 L32.4092728,68.5625886 Z" id="Shape" fill="#EDBE27"></path>
            </g>
            <g id="Group" transform="translate(27.000000, 26.000000)" sketch:type="MSShapeGroup">
                <path d="M27.6521739,67.2701299 L40.0956522,67.2701299 L40.0956522,65.1896104 L29.2652174,65.1896104 L27.6521739,67.2701299 Z" id="Shape"></path>
                <path d="M40.0956522,72.3558442 L23.85,72.3558442 L23.5043478,72.8181818 L23.5043478,73.2805195 L40.0956522,73.2805195 L40.0956522,72.3558442 Z" id="Shape"></path>
                <path d="M94.3630435,41.0324675 C93.0956522,41.0324675 92.0586957,39.761039 92.0586957,38.1428571 C92.0586957,36.5246753 93.0956522,35.2532468 94.3630435,35.2532468 L104.963043,35.2532468 L104.963043,29.9363636 C104.963043,29.3584416 104.502174,28.8961039 103.926087,28.8961039 L78.1173913,28.8961039 C77.8869565,28.8961039 77.6565217,29.0116883 77.426087,29.1272727 C77.3108696,29.1272727 77.1956522,29.1272727 77.1956522,29.2428571 L54.8434783,42.1883117 C54.7282609,42.1883117 54.7282609,42.3038961 54.6130435,42.4194805 C53.9217391,42.6506494 53.4608696,43.112987 53,43.6909091 C52.7695652,44.1532468 52.423913,44.6155844 52.1934783,44.9623377 C49.6586957,48.7766234 46.0869565,51.7818182 41.9391304,53.6311688 C40.7869565,54.0935065 40.0956522,55.2493506 40.0956522,56.5207792 L40.0956522,60.2194805 L33.1826087,60.2194805 L23.6195652,60.2194805 L23.6195652,56.5207792 C23.6195652,55.2493506 22.9282609,54.2090909 21.776087,53.6311688 C12.9043478,49.7012987 7.14347826,40.8012987 7.14347826,31.0922078 C7.14347826,17.4532468 18.2043478,6.35714286 31.8,6.35714286 C43.6673913,6.35714286 53.9217391,14.9103896 55.9956522,26.5844156 C56.1108696,27.3935065 56.5717391,28.087013 57.1478261,28.5493506 C57.8391304,29.0116883 58.6456522,29.3584416 59.5673913,29.1272727 C61.2956522,28.7805195 62.3326087,27.1623377 62.1021739,25.5441558 C59.4521739,10.8649351 46.6630435,0.231168831 31.8,0.231168831 C14.7478261,0.231168831 0.92173913,14.1012987 0.92173913,31.2077922 C0.92173913,42.6506494 7.25869565,53.1688312 17.2826087,58.4857143 L17.2826087,76.9792208 C17.2826087,78.0194805 17.8586957,79.0597403 18.6652174,79.6376623 C20.9695652,84.6077922 25.923913,87.9597403 31.8,87.9597403 C37.5608696,87.9597403 42.5152174,84.4922078 44.9347826,79.6376623 C45.7413043,79.0597403 46.3173913,78.1350649 46.3173913,76.9792208 L46.3173913,69.1194805 L46.3173913,58.4857143 C48.3913043,57.3298701 50.35,56.0584416 52.0782609,54.4402597 C54.0369565,52.7064935 55.8804348,50.7415584 57.3782609,48.4298701 C57.4934783,48.1987013 57.723913,47.9675325 57.8391304,47.7363636 L77.1956522,58.9480519 C77.5413043,59.0636364 77.7717391,59.1792208 78.1173913,59.1792208 L78.2326087,59.1792208 L78.2326087,59.1792208 L78.3478261,59.1792208 L78.4630435,59.1792208 L104.041304,59.1792208 C104.617391,59.1792208 105.078261,58.7168831 105.078261,58.138961 L105.078261,41.0324675 L94.3630435,41.0324675 L94.3630435,41.0324675 Z M83.6478261,49.8168831 C83.6478261,52.3597403 81.9195652,54.5558442 79.5,55.1337662 C79.5,55.1337662 79.5,55.1337662 79.3847826,55.0181818 L66.25,47.3896104 L66.25,40.5701299 L79.0391304,33.1727273 C81.573913,33.6350649 83.5326087,35.9467532 83.5326087,38.6051948 C83.5326087,41.6103896 81.1130435,44.0376623 78.2326087,44.1532468 L78.2326087,44.1532468 C81.2282609,44.3844156 83.6478261,46.8116883 83.6478261,49.8168831 L83.6478261,49.8168831 Z M23.5043478,73.2805195 L23.5043478,72.8181818 L23.5043478,72.3558442 L23.85,72.3558442 L39.9804348,72.3558442 L39.9804348,73.3961039 C39.9804348,73.7428571 39.8652174,74.0896104 39.8652174,74.4363636 L23.6195652,74.4363636 C23.6195652,74.0896104 23.5043478,73.7428571 23.5043478,73.2805195 L23.5043478,73.2805195 Z M40.0956522,67.2701299 L27.6521739,67.2701299 L23.5043478,67.2701299 L23.5043478,65.1896104 L29.2652174,65.1896104 L39.9804348,65.1896104 L39.9804348,67.2701299 L40.0956522,67.2701299 Z M37.3304348,79.4064935 C35.8326087,80.7935065 33.873913,81.6025974 31.8,81.6025974 C29.6108696,81.6025974 27.7673913,80.7935065 26.2695652,79.4064935 L37.3304348,79.4064935 L37.3304348,79.4064935 Z" id="Shape" fill="#FFFFFF"></path>
            </g>
        </g>
    </g>
</svg>