<?xml version="1.0" encoding="utf-8"?>
<!-- Generator: Adobe Illustrator 18.0.0, SVG Export Plug-In . SVG Version: 6.00 Build 0)  -->
<!DOCTYPE svg PUBLIC "-//W3C//DTD SVG 1.1//EN" "http://www.w3.org/Graphics/SVG/1.1/DTD/svg11.dtd">
<svg version="1.1" id="Layer_1" xmlns="http://www.w3.org/2000/svg" xmlns:xlink="http://www.w3.org/1999/xlink" x="0px" y="0px"
	 viewBox="0 0 608 280" style="enable-background:new 0 0 608 280;" xml:space="preserve">
<style type="text/css">
	.st0{fill:#FFFFFF;}
</style>
<g>
	<path class="st0" d="M320.5,225.4c-4.4,0-8.7-1.7-12.1-5l-64.9-64.9c-3.2-3.2-5-7.5-5-12.1s1.8-8.9,5-12.1L314,60.8
		c6.7-6.7,17.5-6.7,24.2,0c6.7,6.7,6.7,17.5,0,24.2l-58.4,58.4l52.8,52.8c6.7,6.7,6.7,17.5,0,24.2
		C329.2,223.7,324.9,225.4,320.5,225.4z"/>
	<path class="st0" d="M404.6,225.4c-4.4,0-8.7-1.7-12.1-5c-6.7-6.7-6.7-17.5,0-24.2l58-58L406,96.7l-63.1,63.7
		c-6.6,6.7-17.5,6.7-24.2,0.1c-6.7-6.6-6.7-17.5-0.1-24.2l74.8-75.5c6.5-6.6,17-6.8,23.8-0.5l69.5,64.9c3.4,3.2,5.3,7.6,5.4,12.2
		c0.1,4.6-1.7,9.1-5,12.4l-70.5,70.5C413.3,223.7,409,225.4,404.6,225.4z"/>
</g>
<path class="st0" d="M137.3,223.1c-12.1,0-23.2-2.1-33.3-6.4c-10.1-4.3-18.8-10.1-26.1-17.6c-7.2-7.5-12.9-16.3-17-26.4
	c-4.1-10.1-6.2-21.1-6.2-32.9c0-11.8,2-22.7,6.2-32.9c4.1-10.1,9.8-18.9,17-26.4c7.2-7.5,15.9-13.3,26.1-17.6
	c10.1-4.3,21.3-6.4,33.3-6.4c12.1,0,23.2,2.1,33.3,6.4c10.1,4.3,18.8,10.1,26.1,17.6c7.2,7.5,12.9,16.3,17,26.4
	c4.1,10.1,6.2,21.1,6.2,32.9c0,11.8-2.1,22.7-6.2,32.9c-4.1,10.1-9.8,18.9-17,26.4c-7.2,7.5-15.9,13.3-26.1,17.6
	C160.5,221,149.4,223.1,137.3,223.1z M137.3,202.9c9.1,0,17.3-1.7,24.6-5c7.3-3.4,13.6-7.9,18.8-13.5c5.2-5.7,9.2-12.3,12.1-20
	c2.8-7.7,4.3-15.8,4.3-24.5c0-8.6-1.4-16.8-4.3-24.5c-2.8-7.7-6.9-14.4-12.1-20c-5.2-5.7-11.5-10.2-18.8-13.5
	c-7.3-3.4-15.5-5-24.6-5c-9.1,0-17.3,1.7-24.6,5c-7.3,3.4-13.6,7.9-18.8,13.5c-5.2,5.7-9.3,12.3-12.1,20c-2.8,7.7-4.3,15.9-4.3,24.5
	c0,8.7,1.4,16.8,4.3,24.5c2.8,7.7,6.9,14.4,12.1,20c5.2,5.7,11.5,10.2,18.8,13.5C120,201.3,128.2,202.9,137.3,202.9z"/>
<path class="st0" d="M524.2,215.6c0-4,1.4-7.3,4.1-10.1c2.8-2.8,6-4.1,9.8-4.1c4,0,7.3,1.4,10.1,4.1c2.8,2.8,4.1,6.1,4.1,10.1
	c0,3.8-1.4,7.1-4.1,9.8c-2.8,2.8-6.1,4.1-10.1,4.1c-3.8,0-7.1-1.4-9.8-4.1C525.5,222.7,524.2,219.4,524.2,215.6z M530.5,50
	c2.4-2.2,4.9-3.3,7.5-3.4c2.6-0.1,5.2,0.8,7.7,2.8c2.5,1.9,4.4,5,5.6,9.1v111.9c-0.2,4.8-1.6,8.4-4.1,10.9c-2.5,2.5-5.3,3.8-8.3,3.9
	c-3,0.1-5.8-1-8.4-3.2c-2.6-2.3-4.2-5.8-4.8-10.5V59.4C526.5,55.3,528.1,52.1,530.5,50z"/>
</svg>
