<?xml version="1.0" encoding="UTF-8" standalone="no"?>
<svg width="90px" height="91px" viewBox="0 0 90 91" version="1.1" xmlns="http://www.w3.org/2000/svg" xmlns:xlink="http://www.w3.org/1999/xlink" xmlns:sketch="http://www.bohemiancoding.com/sketch/ns">
    <!-- Generator: Sketch Beta 3.4 (15138) - http://www.bohemiancoding.com/sketch -->
    <title>Slice 1</title>
    <desc>Created with Sketch Beta.</desc>
    <defs></defs>
    <g id="Page-1" stroke="none" stroke-width="1" fill="none" fill-rule="evenodd" sketch:type="MSPage">
        <g id="Group" sketch:type="MSLayerGroup" fill="#000000">
            <path d="M48.707,47.526 L41.967,54.27 L35.731,48.034 L42.471,41.293 C43.87,39.896 43.87,37.633 42.471,36.238 C41.076,34.841 38.813,34.841 37.417,36.238 L30.675,42.979 L26.032,38.335 C25.935,38.43 17.203,47.161 17.105,47.26 C10.511,53.857 10.067,64.261 15.758,71.376 L0.591,86.541 C-0.196,87.331 -0.196,88.615 0.591,89.407 C1.383,90.198 2.67,90.198 3.461,89.407 L18.625,74.242 C25.743,79.93 36.146,79.484 42.742,72.893 C42.84,72.794 51.565,64.059 51.659,63.961 L47.02,59.325 L53.764,52.581 C55.158,51.188 55.158,48.925 53.764,47.525 C52.365,46.13 50.103,46.13 48.707,47.526 L48.707,47.526 Z" id="Shape" sketch:type="MSShapeGroup"></path>
            <path d="M89.404,0.593 C88.614,-0.197 87.332,-0.197 86.543,0.593 L71.375,15.76 C64.262,10.069 53.855,10.514 47.263,17.108 C47.165,17.206 38.438,25.94 38.342,26.039 L42.98,30.676 L48.708,24.947 C50.104,23.553 52.366,23.553 53.766,24.947 C55.16,26.343 55.16,28.609 53.766,30.002 L48.035,35.732 L54.27,41.965 L60,36.236 C61.396,34.842 63.654,34.842 65.054,36.236 C66.45,37.634 66.45,39.897 65.054,41.295 L59.325,47.024 L63.97,51.666 C64.068,51.571 72.795,42.84 72.893,42.741 C79.491,36.148 79.935,25.74 74.241,18.625 L89.404,3.46 C90.197,2.668 90.197,1.384 89.404,0.593 L89.404,0.593 Z" id="Shape" sketch:type="MSShapeGroup"></path>
        </g>
    </g>
</svg>