<?xml version="1.0" encoding="UTF-8" standalone="no"?>
<svg width="72px" height="72px" viewBox="0 0 72 72" version="1.1" xmlns="http://www.w3.org/2000/svg" xmlns:xlink="http://www.w3.org/1999/xlink" xmlns:sketch="http://www.bohemiancoding.com/sketch/ns">
    <!-- Generator: Sketch Beta 3.4 (15138) - http://www.bohemiancoding.com/sketch -->
    <title>Slice 1</title>
    <desc>Created with Sketch Beta.</desc>
    <defs></defs>
    <g id="Page-1" stroke="none" stroke-width="1" fill="none" fill-rule="evenodd" sketch:type="MSPage">
        <path d="M59.5723352,39.4671957 C56.8158238,41.8976974 52.8171977,40.8395322 52.8171977,36.086895 L52.8171977,21.9409924 C52.8171977,19.9985945 51.3747418,18.6107771 49.4314332,18.6107771 L35.1808069,18.6107771 C30.4281697,18.6107771 29.3690939,14.6066871 31.8005062,11.851997 C35.8036856,7.31700317 33.6591252,0.304154208 26.3749051,0 C19.0915957,0.303243566 16.9470353,7.30425419 20.9502147,11.8401587 C23.381627,14.5957594 22.3234618,18.6107771 17.5708247,18.6107771 L3.53055647,18.6107771 C1.5881585,18.6107771 0,19.9985945 0,21.9409924 L0,36.3783002 C0,37.2251967 0.379737439,38.6503504 1.19111887,39.0282665 C1.9979471,39.4034508 3.04154208,39.011875 3.89936622,38.2296341 C6.53840482,35.8237197 10.0826209,35.1534876 13.0913799,36.4775602 C16.1156198,37.8107391 18.2128268,40.9424346 18.2128268,44.8536392 L18.2128268,44.9228479 L18.2128268,44.96838 C18.2128268,48.8677462 16.0910325,51.9693906 13.0513117,53.3080334 C10.0097696,54.6466762 6.44916197,53.9272695 3.80101695,51.5131593 C2.95229922,50.7382035 1.95696824,50.3684831 1.18110182,50.7290971 C0.384290645,51.1015494 0,52.4638689 0,53.3107653 L0,67.8418692 C0,69.7842672 1.5881585,71.4279748 3.53055647,71.4279748 L49.4314332,71.4279748 C51.3747418,71.4279748 52.8171977,69.7842672 52.8171977,67.8418692 L52.8171977,53.6959666 C52.8171977,48.9433295 56.784862,47.8860749 59.5386414,50.3165766 C64.0736353,54.3197559 71.0318458,52.1751956 71.336,44.8909755 C71.0318458,37.6076661 64.107329,35.4640163 59.5723352,39.4671957 L59.5723352,39.4671957 Z" id="Shape" fill="#000000" sketch:type="MSShapeGroup"></path>
    </g>
</svg>