<?xml version="1.0" encoding="UTF-8" standalone="no"?>
<svg width="63px" height="66px" viewBox="0 0 63 66" version="1.1" xmlns="http://www.w3.org/2000/svg" xmlns:xlink="http://www.w3.org/1999/xlink" xmlns:sketch="http://www.bohemiancoding.com/sketch/ns">
    <!-- Generator: Sketch Beta 3.4 (15138) - http://www.bohemiancoding.com/sketch -->
    <title>Slice 1</title>
    <desc>Created with Sketch Beta.</desc>
    <defs></defs>
    <g id="Page-1" stroke="none" stroke-width="1" fill="none" fill-rule="evenodd" sketch:type="MSPage">
        <g id="Group" sketch:type="MSLayerGroup" fill="#000000">
            <path d="M22.6114153,0.463477201 C23.4119953,0.943297201 23.9419753,1.8243972 24.0066553,2.7536772 C24.0488953,3.1008372 24.0013753,3.4486572 23.9927953,3.7971372 C23.9927953,8.2646772 23.9947753,12.7322172 23.9921353,17.1984372 C24.0132553,18.9791172 23.6885353,20.7406572 23.2813153,22.4678772 C22.8146953,24.2478972 22.2550153,26.0219772 21.3659953,27.6402972 C16.4113753,36.8697372 11.4527953,46.0985172 6.49883533,55.3279572 C6.03485533,56.1786972 5.77349533,57.1957572 6.04211533,58.1494572 C6.29951533,58.9823772 7.01429533,59.6126772 7.83797533,59.8562172 C8.47685533,60.0858972 9.16589533,60.0832572 9.83579533,60.0806172 C23.8667353,60.0792972 37.8983353,60.0832572 51.9286153,60.0792972 C52.8928753,60.0971172 53.9277553,59.9037372 54.6643153,59.2377972 C55.2767953,58.7005572 55.5421153,57.8432172 55.4523553,57.0465972 C55.4140753,56.3694372 55.1296153,55.7404572 54.8095153,55.1517372 C49.8245353,45.8668572 44.8395553,36.5826372 39.8539153,27.2977572 C38.6467753,24.8610372 37.9458553,22.1959572 37.5571153,19.5130572 C37.3637353,18.1818372 37.4191753,16.8327972 37.4112553,15.4910172 C37.4112553,11.6537772 37.4092753,7.8145572 37.4119153,3.9773172 C37.4264353,3.5885772 37.3518553,3.2018172 37.3888153,2.8130772 C37.4152153,1.7913972 38.0461753,0.819877201 38.9490553,0.351937201 C39.6717553,-0.0295427986 40.5587953,-0.119302799 41.3296753,0.173737201 C42.1454353,0.448297201 42.8199553,1.1089572 43.1176153,1.9181172 C43.3314553,2.4249972 43.3340953,2.9873172 43.3195753,3.5278572 C43.3182553,6.5262372 43.3195753,9.5252772 43.3195753,12.5236572 C43.3334353,14.3505372 43.2839353,16.1787372 43.3525753,18.0049572 C43.4858953,19.5071172 43.8145753,20.9888172 44.2706353,22.4236572 C44.6910553,23.9634372 45.5351953,25.3289772 46.2724153,26.7281772 C50.6297353,34.8422172 54.9857353,42.9555972 59.3437153,51.0689772 C59.8479553,52.0451172 60.4432753,52.9829772 60.7976953,54.0297372 C61.7322553,56.4908772 61.6088353,59.3909172 60.2386753,61.6685772 C59.0843353,63.6822372 57.0429553,65.1157572 54.8048953,65.6701572 C54.1000153,65.8635372 53.3674153,65.9394372 52.6420753,65.9975172 C38.0428753,66.0014772 23.4449953,65.9961972 8.84579533,65.9988372 C7.80365533,65.9433972 6.76019533,65.7711372 5.77547533,65.4186972 C4.15385533,64.8537372 2.68601533,63.8129172 1.66631533,62.4269172 C-0.00942466998,60.2185572 -0.41862467,57.1904772 0.42683533,54.5735772 C0.76871533,53.3195772 1.46105533,52.2081372 2.06033533,51.0676572 C6.72191533,42.3873372 11.3828353,33.7063572 16.0444153,25.0253772 C16.8449953,23.6017572 17.3030353,22.0190772 17.6660353,20.4350772 C17.9419153,19.2569772 18.0904153,18.0498372 18.0851353,16.8400572 C18.0811753,12.3718572 18.0884353,7.9036572 18.0811753,3.4354572 C18.0230953,2.5926372 18.2257153,1.7055972 18.7939753,1.0607772 C19.2242953,0.553237201 19.8334753,0.204757201 20.4842353,0.0714372014 C21.2102353,-0.0691427986 21.9857353,0.0648372014 22.6114153,0.463477201 Z" id="Shape" sketch:type="MSShapeGroup"></path>
            <rect id="Rectangle-path" sketch:type="MSShapeGroup" x="30.4357153" y="38.9678772" width="12.1341" height="4.67016"></rect>
            <path d="M30.4363753,45.5196972 L42.5698153,45.5196972 L42.5519953,50.1858972 L30.4535353,50.1858972 L30.4363753,45.5196972 Z" id="Shape" sketch:type="MSShapeGroup"></path>
            <path d="M30.4343953,52.0101372 C34.4795353,52.0035372 38.5259953,52.0035372 42.5698153,52.0101372 C42.5770753,53.5657572 42.5757553,55.1233572 42.5711353,56.6789772 C38.5259953,56.6855772 34.4795353,56.6855772 30.4357153,56.6789772 C30.4291153,55.1226972 30.4304353,53.5657572 30.4343953,52.0101372 L30.4343953,52.0101372 Z" id="Shape" sketch:type="MSShapeGroup"></path>
        </g>
    </g>
</svg>