<?xml version="1.0" encoding="UTF-8" standalone="no"?>
<svg width="67px" height="63px" viewBox="0 0 67 63" version="1.1" xmlns="http://www.w3.org/2000/svg" xmlns:xlink="http://www.w3.org/1999/xlink" xmlns:sketch="http://www.bohemiancoding.com/sketch/ns">
    <!-- Generator: Sketch Beta 3.4 (15138) - http://www.bohemiancoding.com/sketch -->
    <title>Slice 1</title>
    <desc>Created with Sketch Beta.</desc>
    <defs></defs>
    <g id="Page-1" stroke="none" stroke-width="1" fill="none" fill-rule="evenodd" sketch:type="MSPage">
        <g id="1443711367_Open-Source_Iniciative" sketch:type="MSLayerGroup" fill="#000000">
            <path d="M49.1112034,62.8026549 C48.9860261,62.8026549 48.8608489,62.7859646 48.7384534,62.752584 C48.3823937,62.6524422 48.0819683,62.4159963 47.898375,62.0960989 L37.6199328,43.9064552 C37.2416194,43.2388433 37.4780653,42.3904198 38.1428955,42.0121063 C41.2111287,40.2735336 43.1138228,37.0411791 43.1138228,33.5779422 C43.1138228,28.2092295 38.746528,23.8419347 33.3778153,23.8419347 C28.0091026,23.8419347 23.6418078,28.2092295 23.6418078,33.5779422 C23.6418078,37.0411791 25.5472836,40.2735336 28.6127351,42.0121063 C29.2775653,42.3904198 29.5140112,43.2388433 29.1356978,43.9064552 L18.8600373,62.0960989 C18.6792257,62.4159963 18.3760187,62.6524422 18.019959,62.752584 C17.6638993,62.849944 17.2828041,62.8026549 16.9629067,62.6218433 C6.50087127,56.6940056 0,45.5643582 0,33.5779422 C0,15.1713246 14.9739795,0.197345149 33.380597,0.197345149 C51.7872146,0.197345149 66.761194,15.1713246 66.761194,33.5779422 C66.761194,45.5671399 60.2603228,56.6967873 49.7955056,62.6218433 C49.5868769,62.7414571 49.350431,62.8026549 49.1112034,62.8026549 L49.1112034,62.8026549 Z M40.688166,43.6811362 L49.6230392,59.4896306 C58.5134049,53.903944 63.9794776,44.1011754 63.9794776,33.5779422 C63.9794776,16.7068321 50.2517071,2.97906157 33.380597,2.97906157 C16.5094869,2.97906157 2.78171642,16.7068321 2.78171642,33.5779422 C2.78171642,44.1011754 8.24778918,53.903944 17.1381549,59.4896306 L26.073028,43.6811362 C22.8295466,41.3361493 20.8628731,37.5808321 20.8628731,33.5779422 C20.8628731,26.6765037 26.4791586,21.0602183 33.380597,21.0602183 C40.2820354,21.0602183 45.8983209,26.6765037 45.8983209,33.5779422 C45.8983209,37.5808321 43.9316474,41.3361493 40.688166,43.6811362 L40.688166,43.6811362 Z" id="Shape" sketch:type="MSShapeGroup"></path>
        </g>
    </g>
</svg>